%
M48
M72
T01C0.02362
T02C0.02400
T03C0.03150
T04C0.03200
T05C0.03600
%
T01
X46800Y11800
X66800Y31800
X116800Y31800
X166800Y31800
X216800Y31800
X251800Y11800
X81800Y136800
T02
X39925Y111800
X59925Y103050
X68675Y101800
X66175Y109925
X38675Y93050
X64925Y90550
X41800Y76175
X42425Y54300
X64925Y41800
X70550Y52425
X76175Y31800
X69925Y22425
X84300Y19925
X93050Y16175
X100550Y19925
X133050Y19925
X157425Y41800
X173675Y58050
X125550Y51175
X118675Y44925
X200550Y14925
X116800Y96800
X111175Y101800
X109925Y110550
X114925Y110550
X211175Y109300
T03
X21800Y21800
X31800Y21800
X31800Y31800
X21800Y31800
X21800Y41800
X31800Y41800
X31800Y51800
X21800Y51800
X21800Y61800
X31800Y61800
X31800Y71800
X21800Y71800
X21800Y81800
X31800Y81800
X31800Y91800
X21800Y91800
X21800Y101800
X31800Y101800
X31800Y111800
X21800Y111800
X21800Y121800
X31800Y121800
X31800Y131800
X21800Y131800
T04
X51800Y127800
X51800Y135800
X51800Y106800
X51800Y96800
X51800Y86800
X51800Y76800
X51800Y66800
X51800Y56800
X51800Y46800
X51800Y36800
X51800Y26800
X56800Y11800
X76800Y11800
X81800Y26800
X81800Y36800
X81800Y46800
X81800Y56800
X81800Y66800
X81800Y76800
X81800Y86800
X81800Y96800
X81800Y106800
X101800Y106800
X101800Y96800
X101800Y86800
X101800Y76800
X101800Y66800
X101800Y56800
X101800Y46800
X101800Y36800
X101800Y26800
X106800Y11800
X126800Y11800
X131800Y26800
X131800Y36800
X131800Y46800
X131800Y56800
X131800Y66800
X131800Y76800
X131800Y86800
X131800Y96800
X131800Y106800
X151800Y106800
X151800Y96800
X151800Y86800
X151800Y76800
X151800Y66800
X151800Y56800
X151800Y46800
X151800Y36800
X151800Y26800
X156800Y11800
X176800Y11800
X181800Y26800
X181800Y36800
X181800Y46800
X181800Y56800
X181800Y66800
X181800Y76800
X181800Y86800
X181800Y96800
X181800Y106800
X201800Y106800
X201800Y96800
X201800Y86800
X201800Y76800
X201800Y66800
X201800Y56800
X201800Y46800
X201800Y36800
X201800Y26800
X206800Y11800
X226800Y11800
X231800Y26800
X231800Y36800
X231800Y46800
X231800Y56800
X231800Y66800
X231800Y76800
X231800Y86800
X231800Y96800
X231800Y106800
T05
X246800Y111800
M30
