G75*
%MOIN*%
%OFA0B0*%
%FSLAX25Y25*%
%IPPOS*%
%LPD*%
%AMOC8*
5,1,8,0,0,1.08239X$1,22.5*
%
%ADD10C,0.00000*%
%ADD11C,0.00400*%
%ADD12C,0.00300*%
D10*
X0001800Y0001800D02*
X0001800Y0146761D01*
X0001800Y0146800D02*
X0091800Y0146800D01*
X0091800Y0121800D01*
X0261800Y0121800D01*
X0261800Y0001800D01*
X0001800Y0001800D01*
D11*
X0006535Y0057000D02*
X0005000Y0058535D01*
X0006535Y0060069D01*
X0009604Y0060069D01*
X0009604Y0061604D02*
X0009604Y0063906D01*
X0008837Y0064673D01*
X0007302Y0064673D01*
X0006535Y0063906D01*
X0006535Y0061604D01*
X0006535Y0063139D02*
X0005000Y0064673D01*
X0005000Y0066208D02*
X0008069Y0066208D01*
X0009604Y0067742D01*
X0008069Y0069277D01*
X0005000Y0069277D01*
X0005000Y0070812D02*
X0009604Y0070812D01*
X0008069Y0072346D01*
X0009604Y0073881D01*
X0005000Y0073881D01*
X0007302Y0069277D02*
X0007302Y0066208D01*
X0005000Y0061604D02*
X0009604Y0061604D01*
X0009604Y0057000D02*
X0006535Y0057000D01*
X0005767Y0080020D02*
X0005000Y0080787D01*
X0005000Y0082322D01*
X0005767Y0083089D01*
X0005767Y0084624D02*
X0005000Y0085391D01*
X0005000Y0086926D01*
X0005767Y0087693D01*
X0008837Y0087693D01*
X0009604Y0086926D01*
X0009604Y0085391D01*
X0008837Y0084624D01*
X0005767Y0084624D01*
X0008837Y0083089D02*
X0009604Y0082322D01*
X0009604Y0080787D01*
X0008837Y0080020D01*
X0005767Y0080020D01*
X0005000Y0089227D02*
X0009604Y0089227D01*
X0005000Y0092297D01*
X0009604Y0092297D01*
X0009604Y0093831D02*
X0005000Y0096901D01*
X0009604Y0096901D01*
X0009604Y0093831D02*
X0005000Y0093831D01*
X0067000Y0073114D02*
X0071604Y0073114D01*
X0069302Y0070812D01*
X0069302Y0073881D01*
X0068535Y0069277D02*
X0069302Y0068510D01*
X0069302Y0066208D01*
X0067767Y0066208D01*
X0067000Y0066975D01*
X0067000Y0068510D01*
X0067767Y0069277D01*
X0068535Y0069277D01*
X0070837Y0067742D02*
X0069302Y0066208D01*
X0069302Y0064673D02*
X0069302Y0061604D01*
X0071604Y0063906D01*
X0067000Y0063906D01*
X0070837Y0067742D02*
X0071604Y0069277D01*
X0069302Y0060069D02*
X0069302Y0057000D01*
X0071604Y0059302D01*
X0067000Y0059302D01*
X0117000Y0059302D02*
X0121604Y0059302D01*
X0119302Y0057000D01*
X0119302Y0060069D01*
X0119302Y0061604D02*
X0119302Y0064673D01*
X0119302Y0066208D02*
X0117767Y0066208D01*
X0117000Y0066975D01*
X0117000Y0068510D01*
X0117767Y0069277D01*
X0118535Y0069277D01*
X0119302Y0068510D01*
X0119302Y0066208D01*
X0120837Y0067742D01*
X0121604Y0069277D01*
X0119302Y0070812D02*
X0119302Y0073881D01*
X0117000Y0073114D02*
X0121604Y0073114D01*
X0119302Y0070812D01*
X0117000Y0063906D02*
X0121604Y0063906D01*
X0119302Y0061604D01*
X0167000Y0063906D02*
X0171604Y0063906D01*
X0169302Y0061604D01*
X0169302Y0064673D01*
X0169302Y0066208D02*
X0167767Y0066208D01*
X0167000Y0066975D01*
X0167000Y0068510D01*
X0167767Y0069277D01*
X0168535Y0069277D01*
X0169302Y0068510D01*
X0169302Y0066208D01*
X0170837Y0067742D01*
X0171604Y0069277D01*
X0169302Y0070812D02*
X0169302Y0073881D01*
X0167000Y0073114D02*
X0171604Y0073114D01*
X0169302Y0070812D01*
X0169302Y0060069D02*
X0169302Y0057000D01*
X0171604Y0059302D01*
X0167000Y0059302D01*
X0217000Y0059302D02*
X0221604Y0059302D01*
X0219302Y0057000D01*
X0219302Y0060069D01*
X0219302Y0061604D02*
X0219302Y0064673D01*
X0219302Y0066208D02*
X0217767Y0066208D01*
X0217000Y0066975D01*
X0217000Y0068510D01*
X0217767Y0069277D01*
X0218535Y0069277D01*
X0219302Y0068510D01*
X0219302Y0066208D01*
X0220837Y0067742D01*
X0221604Y0069277D01*
X0219302Y0070812D02*
X0219302Y0073881D01*
X0217000Y0073114D02*
X0221604Y0073114D01*
X0219302Y0070812D01*
X0217000Y0063906D02*
X0221604Y0063906D01*
X0219302Y0061604D01*
X0245000Y0060737D02*
X0245000Y0058435D01*
X0245767Y0057668D01*
X0247302Y0057668D01*
X0248069Y0058435D01*
X0248069Y0060737D01*
X0249604Y0060737D02*
X0245000Y0060737D01*
X0248069Y0056133D02*
X0248069Y0055366D01*
X0246535Y0053831D01*
X0246535Y0052297D02*
X0246535Y0049995D01*
X0245767Y0049227D01*
X0245000Y0049995D01*
X0245000Y0052297D01*
X0247302Y0052297D01*
X0248069Y0051529D01*
X0248069Y0049995D01*
X0247302Y0047693D02*
X0248069Y0046926D01*
X0248069Y0045391D01*
X0247302Y0044624D01*
X0245767Y0044624D01*
X0245000Y0045391D01*
X0245000Y0046926D01*
X0245767Y0047693D01*
X0247302Y0047693D01*
X0248069Y0043089D02*
X0247302Y0042322D01*
X0247302Y0040020D01*
X0245000Y0040020D02*
X0249604Y0040020D01*
X0249604Y0042322D01*
X0248837Y0043089D01*
X0248069Y0043089D01*
X0247302Y0042322D02*
X0246535Y0043089D01*
X0245767Y0043089D01*
X0245000Y0042322D01*
X0245000Y0040020D01*
X0245000Y0033881D02*
X0249604Y0033881D01*
X0248069Y0032346D01*
X0249604Y0030812D01*
X0245000Y0030812D01*
X0245000Y0029277D02*
X0248069Y0029277D01*
X0249604Y0027742D01*
X0248069Y0026208D01*
X0245000Y0026208D01*
X0245000Y0024673D02*
X0246535Y0023139D01*
X0246535Y0023906D02*
X0246535Y0021604D01*
X0246535Y0020069D02*
X0249604Y0020069D01*
X0249604Y0021604D02*
X0249604Y0023906D01*
X0248837Y0024673D01*
X0247302Y0024673D01*
X0246535Y0023906D01*
X0247302Y0026208D02*
X0247302Y0029277D01*
X0245000Y0021604D02*
X0249604Y0021604D01*
X0246535Y0020069D02*
X0245000Y0018535D01*
X0246535Y0017000D01*
X0249604Y0017000D01*
X0248069Y0053831D02*
X0245000Y0053831D01*
X0245767Y0066876D02*
X0245000Y0067643D01*
X0245000Y0069178D01*
X0245767Y0069945D01*
X0246535Y0069945D01*
X0247302Y0069178D01*
X0247302Y0066876D01*
X0245767Y0066876D01*
X0247302Y0066876D02*
X0248837Y0068410D01*
X0249604Y0069945D01*
X0247302Y0071480D02*
X0247302Y0074549D01*
X0247302Y0076084D02*
X0247302Y0079153D01*
X0248069Y0080688D02*
X0249604Y0082222D01*
X0245000Y0082222D01*
X0245000Y0080688D02*
X0245000Y0083757D01*
X0245000Y0085292D02*
X0248069Y0088361D01*
X0248837Y0088361D01*
X0249604Y0087594D01*
X0249604Y0086059D01*
X0248837Y0085292D01*
X0245000Y0085292D02*
X0245000Y0088361D01*
X0245767Y0089895D02*
X0246535Y0089895D01*
X0247302Y0090663D01*
X0247302Y0092197D01*
X0246535Y0092965D01*
X0245767Y0092965D01*
X0245000Y0092197D01*
X0245000Y0090663D01*
X0245767Y0089895D01*
X0247302Y0090663D02*
X0248069Y0089895D01*
X0248837Y0089895D01*
X0249604Y0090663D01*
X0249604Y0092197D01*
X0248837Y0092965D01*
X0248069Y0092965D01*
X0247302Y0092197D01*
X0246535Y0099103D02*
X0249604Y0102173D01*
X0249604Y0103707D02*
X0249604Y0106009D01*
X0248837Y0106777D01*
X0248069Y0106777D01*
X0247302Y0106009D01*
X0247302Y0103707D01*
X0245000Y0103707D02*
X0249604Y0103707D01*
X0247302Y0106009D02*
X0246535Y0106777D01*
X0245767Y0106777D01*
X0245000Y0106009D01*
X0245000Y0103707D01*
X0245000Y0102173D02*
X0247302Y0099871D01*
X0249604Y0099103D02*
X0245000Y0099103D01*
X0245000Y0073782D02*
X0249604Y0073782D01*
X0247302Y0071480D01*
X0086600Y0128535D02*
X0085065Y0127000D01*
X0083531Y0128535D01*
X0083531Y0131604D01*
X0081996Y0130069D02*
X0080461Y0131604D01*
X0080461Y0127000D01*
X0078927Y0127000D02*
X0081996Y0127000D01*
X0086600Y0128535D02*
X0086600Y0131604D01*
X0077392Y0127767D02*
X0076625Y0127767D01*
X0076625Y0127000D01*
X0077392Y0127000D01*
X0077392Y0127767D01*
X0075090Y0127000D02*
X0072021Y0127000D01*
X0073556Y0127000D02*
X0073556Y0131604D01*
X0075090Y0130069D01*
D12*
X0252783Y0060766D02*
X0252783Y0060282D01*
X0252783Y0060766D02*
X0253266Y0061250D01*
X0255685Y0061250D01*
X0253750Y0061250D02*
X0253750Y0059798D01*
X0254234Y0059315D01*
X0255685Y0059315D01*
X0255201Y0058303D02*
X0254717Y0058303D01*
X0254717Y0056368D01*
X0254234Y0056368D02*
X0255201Y0056368D01*
X0255685Y0056852D01*
X0255685Y0057819D01*
X0255201Y0058303D01*
X0253750Y0057819D02*
X0253750Y0056852D01*
X0254234Y0056368D01*
X0253750Y0055357D02*
X0255685Y0053422D01*
X0255201Y0052410D02*
X0254717Y0052410D01*
X0254717Y0050475D01*
X0254234Y0050475D02*
X0255201Y0050475D01*
X0255685Y0050959D01*
X0255685Y0051926D01*
X0255201Y0052410D01*
X0253750Y0051926D02*
X0253750Y0050959D01*
X0254234Y0050475D01*
X0253750Y0049478D02*
X0253750Y0048511D01*
X0253750Y0048994D02*
X0256652Y0048994D01*
X0256652Y0048511D01*
X0255685Y0047499D02*
X0253750Y0047499D01*
X0255201Y0047499D02*
X0255201Y0045564D01*
X0255685Y0045564D02*
X0256652Y0046532D01*
X0255685Y0047499D01*
X0255685Y0045564D02*
X0253750Y0045564D01*
X0253750Y0041606D02*
X0253750Y0040155D01*
X0254234Y0039671D01*
X0255685Y0039671D01*
X0255201Y0038660D02*
X0255685Y0038176D01*
X0255685Y0036725D01*
X0256652Y0036725D02*
X0253750Y0036725D01*
X0253750Y0038176D01*
X0254234Y0038660D01*
X0255201Y0038660D01*
X0255685Y0041606D02*
X0253266Y0041606D01*
X0252783Y0041122D01*
X0252783Y0040639D01*
X0253750Y0032781D02*
X0254234Y0032298D01*
X0256169Y0032298D01*
X0255685Y0032781D02*
X0255685Y0031814D01*
X0255685Y0030802D02*
X0253750Y0030802D01*
X0253750Y0029351D01*
X0254234Y0028867D01*
X0255685Y0028867D01*
X0255201Y0027856D02*
X0255685Y0027372D01*
X0255685Y0026404D01*
X0255201Y0025921D01*
X0254234Y0025921D01*
X0253750Y0026404D01*
X0253750Y0027372D01*
X0254234Y0027856D01*
X0255201Y0027856D01*
X0255685Y0024909D02*
X0253266Y0024909D01*
X0252783Y0024425D01*
X0252783Y0023942D01*
X0253750Y0023458D02*
X0253750Y0024909D01*
X0253750Y0023458D02*
X0254234Y0022974D01*
X0255685Y0022974D01*
X0255201Y0021963D02*
X0253750Y0021963D01*
X0253750Y0020511D01*
X0254234Y0020028D01*
X0254717Y0020511D01*
X0254717Y0021963D01*
X0255201Y0021963D02*
X0255685Y0021479D01*
X0255685Y0020511D01*
X0253750Y0019016D02*
X0253750Y0017081D01*
X0256652Y0017081D01*
X0253750Y0053422D02*
X0255685Y0055357D01*
X0254717Y0065208D02*
X0254717Y0066659D01*
X0255201Y0067143D01*
X0256169Y0067143D01*
X0256652Y0066659D01*
X0256652Y0065208D01*
X0253750Y0065208D01*
X0254234Y0068154D02*
X0253750Y0068638D01*
X0253750Y0069605D01*
X0254234Y0070089D01*
X0255201Y0070089D01*
X0255685Y0069605D01*
X0255685Y0068638D01*
X0255201Y0068154D01*
X0254234Y0068154D01*
X0254234Y0071101D02*
X0255201Y0071101D01*
X0255685Y0071584D01*
X0255685Y0073036D01*
X0256652Y0073036D02*
X0253750Y0073036D01*
X0253750Y0071584D01*
X0254234Y0071101D01*
X0254717Y0074047D02*
X0255685Y0075015D01*
X0255685Y0075498D01*
X0255201Y0076503D02*
X0255685Y0076986D01*
X0255685Y0077954D01*
X0255201Y0078438D01*
X0254717Y0078438D01*
X0254717Y0076503D01*
X0254234Y0076503D02*
X0255201Y0076503D01*
X0254234Y0076503D02*
X0253750Y0076986D01*
X0253750Y0077954D01*
X0253750Y0079449D02*
X0253750Y0081384D01*
X0254234Y0082396D02*
X0253750Y0082879D01*
X0253750Y0083847D01*
X0254234Y0084331D01*
X0255201Y0084331D01*
X0255685Y0083847D01*
X0255685Y0082879D01*
X0255201Y0082396D01*
X0254234Y0082396D01*
X0255685Y0081384D02*
X0253750Y0079449D01*
X0255685Y0079449D02*
X0255685Y0081384D01*
X0255685Y0085342D02*
X0253750Y0086310D01*
X0255685Y0087277D01*
X0255685Y0091235D02*
X0256652Y0092203D01*
X0256169Y0093200D02*
X0256652Y0093683D01*
X0256652Y0094651D01*
X0256169Y0095135D01*
X0255685Y0095135D01*
X0253750Y0093200D01*
X0253750Y0095135D01*
X0254234Y0096146D02*
X0256169Y0098081D01*
X0254234Y0098081D01*
X0253750Y0097597D01*
X0253750Y0096630D01*
X0254234Y0096146D01*
X0256169Y0096146D01*
X0256652Y0096630D01*
X0256652Y0097597D01*
X0256169Y0098081D01*
X0255685Y0099093D02*
X0256652Y0100060D01*
X0253750Y0100060D01*
X0253750Y0099093D02*
X0253750Y0101028D01*
X0254234Y0102039D02*
X0253750Y0102523D01*
X0253750Y0103490D01*
X0254234Y0103974D01*
X0255201Y0103974D01*
X0255685Y0103490D01*
X0255685Y0103007D01*
X0255201Y0102039D01*
X0256652Y0102039D01*
X0256652Y0103974D01*
X0256652Y0104986D02*
X0255685Y0105953D01*
X0254717Y0105953D01*
X0253750Y0104986D01*
X0253750Y0092203D02*
X0254717Y0091235D01*
X0255685Y0091235D01*
X0255685Y0074047D02*
X0253750Y0074047D01*
M02*
