G75*
%MOIN*%
%OFA0B0*%
%FSLAX25Y25*%
%IPPOS*%
%LPD*%
%AMOC8*
5,1,8,0,0,1.08239X$1,22.5*
%
%ADD10C,0.05150*%
%ADD11C,0.05200*%
%ADD12OC8,0.05200*%
%ADD13C,0.05200*%
%ADD14OC8,0.06300*%
%ADD15C,0.01600*%
%ADD16C,0.03962*%
%ADD17C,0.01000*%
%ADD18C,0.04000*%
D10*
X0021800Y0021800D03*
X0031800Y0021800D03*
X0031800Y0031800D03*
X0021800Y0031800D03*
X0021800Y0041800D03*
X0031800Y0041800D03*
X0031800Y0051800D03*
X0021800Y0051800D03*
X0021800Y0061800D03*
X0031800Y0061800D03*
X0031800Y0071800D03*
X0021800Y0071800D03*
X0021800Y0081800D03*
X0031800Y0081800D03*
X0031800Y0091800D03*
X0021800Y0091800D03*
X0021800Y0101800D03*
X0031800Y0101800D03*
X0031800Y0111800D03*
X0021800Y0111800D03*
X0021800Y0121800D03*
X0031800Y0121800D03*
X0031800Y0131800D03*
X0021800Y0131800D03*
D11*
X0049200Y0106800D02*
X0054400Y0106800D01*
X0054400Y0096800D02*
X0049200Y0096800D01*
X0049200Y0086800D02*
X0054400Y0086800D01*
X0054400Y0076800D02*
X0049200Y0076800D01*
X0049200Y0066800D02*
X0054400Y0066800D01*
X0054400Y0056800D02*
X0049200Y0056800D01*
X0049200Y0046800D02*
X0054400Y0046800D01*
X0054400Y0036800D02*
X0049200Y0036800D01*
X0049200Y0026800D02*
X0054400Y0026800D01*
X0079200Y0026800D02*
X0084400Y0026800D01*
X0099200Y0026800D02*
X0104400Y0026800D01*
X0104400Y0036800D02*
X0099200Y0036800D01*
X0084400Y0036800D02*
X0079200Y0036800D01*
X0079200Y0046800D02*
X0084400Y0046800D01*
X0099200Y0046800D02*
X0104400Y0046800D01*
X0104400Y0056800D02*
X0099200Y0056800D01*
X0084400Y0056800D02*
X0079200Y0056800D01*
X0079200Y0066800D02*
X0084400Y0066800D01*
X0099200Y0066800D02*
X0104400Y0066800D01*
X0104400Y0076800D02*
X0099200Y0076800D01*
X0084400Y0076800D02*
X0079200Y0076800D01*
X0079200Y0086800D02*
X0084400Y0086800D01*
X0099200Y0086800D02*
X0104400Y0086800D01*
X0104400Y0096800D02*
X0099200Y0096800D01*
X0084400Y0096800D02*
X0079200Y0096800D01*
X0079200Y0106800D02*
X0084400Y0106800D01*
X0099200Y0106800D02*
X0104400Y0106800D01*
X0129200Y0106800D02*
X0134400Y0106800D01*
X0134400Y0096800D02*
X0129200Y0096800D01*
X0129200Y0086800D02*
X0134400Y0086800D01*
X0149200Y0086800D02*
X0154400Y0086800D01*
X0154400Y0076800D02*
X0149200Y0076800D01*
X0134400Y0076800D02*
X0129200Y0076800D01*
X0129200Y0066800D02*
X0134400Y0066800D01*
X0134400Y0056800D02*
X0129200Y0056800D01*
X0129200Y0046800D02*
X0134400Y0046800D01*
X0149200Y0046800D02*
X0154400Y0046800D01*
X0154400Y0036800D02*
X0149200Y0036800D01*
X0149200Y0026800D02*
X0154400Y0026800D01*
X0134400Y0026800D02*
X0129200Y0026800D01*
X0129200Y0036800D02*
X0134400Y0036800D01*
X0149200Y0056800D02*
X0154400Y0056800D01*
X0154400Y0066800D02*
X0149200Y0066800D01*
X0179200Y0066800D02*
X0184400Y0066800D01*
X0184400Y0056800D02*
X0179200Y0056800D01*
X0179200Y0046800D02*
X0184400Y0046800D01*
X0199200Y0046800D02*
X0204400Y0046800D01*
X0204400Y0036800D02*
X0199200Y0036800D01*
X0199200Y0026800D02*
X0204400Y0026800D01*
X0184400Y0026800D02*
X0179200Y0026800D01*
X0179200Y0036800D02*
X0184400Y0036800D01*
X0199200Y0056800D02*
X0204400Y0056800D01*
X0204400Y0066800D02*
X0199200Y0066800D01*
X0199200Y0076800D02*
X0204400Y0076800D01*
X0204400Y0086800D02*
X0199200Y0086800D01*
X0184400Y0086800D02*
X0179200Y0086800D01*
X0179200Y0076800D02*
X0184400Y0076800D01*
X0184400Y0096800D02*
X0179200Y0096800D01*
X0179200Y0106800D02*
X0184400Y0106800D01*
X0199200Y0106800D02*
X0204400Y0106800D01*
X0204400Y0096800D02*
X0199200Y0096800D01*
X0229200Y0096800D02*
X0234400Y0096800D01*
X0234400Y0106800D02*
X0229200Y0106800D01*
X0229200Y0086800D02*
X0234400Y0086800D01*
X0234400Y0076800D02*
X0229200Y0076800D01*
X0229200Y0066800D02*
X0234400Y0066800D01*
X0234400Y0056800D02*
X0229200Y0056800D01*
X0229200Y0046800D02*
X0234400Y0046800D01*
X0234400Y0036800D02*
X0229200Y0036800D01*
X0229200Y0026800D02*
X0234400Y0026800D01*
X0154400Y0096800D02*
X0149200Y0096800D01*
X0149200Y0106800D02*
X0154400Y0106800D01*
D12*
X0051800Y0127800D03*
X0056800Y0011800D03*
X0076800Y0011800D03*
X0106800Y0011800D03*
X0126800Y0011800D03*
X0156800Y0011800D03*
X0176800Y0011800D03*
X0206800Y0011800D03*
X0226800Y0011800D03*
D13*
X0051800Y0135800D03*
D14*
X0246800Y0111800D03*
D15*
X0006600Y0142000D02*
X0006600Y0006600D01*
X0257000Y0006600D01*
X0257000Y0117000D01*
X0189580Y0117000D01*
X0190157Y0116423D01*
X0190173Y0116407D01*
X0207048Y0116407D01*
X0208282Y0115173D01*
X0210548Y0112907D01*
X0211892Y0112907D01*
X0213218Y0112358D01*
X0214233Y0111343D01*
X0214782Y0110017D01*
X0214782Y0108582D01*
X0214233Y0107257D01*
X0213218Y0106242D01*
X0211892Y0105693D01*
X0210457Y0105693D01*
X0209132Y0106242D01*
X0208607Y0106767D01*
X0208607Y0105963D01*
X0207967Y0104417D01*
X0206783Y0103233D01*
X0205237Y0102593D01*
X0198363Y0102593D01*
X0196817Y0103233D01*
X0195633Y0104417D01*
X0194993Y0105963D01*
X0194993Y0107637D01*
X0195633Y0109183D01*
X0196035Y0109585D01*
X0195302Y0110318D01*
X0187177Y0110318D01*
X0185927Y0111568D01*
X0175798Y0111568D01*
X0170157Y0105927D01*
X0168923Y0104693D01*
X0158081Y0104693D01*
X0157967Y0104417D01*
X0156783Y0103233D01*
X0155237Y0102593D01*
X0148363Y0102593D01*
X0146817Y0103233D01*
X0145633Y0104417D01*
X0144993Y0105963D01*
X0144993Y0106252D01*
X0139677Y0111568D01*
X0127673Y0111568D01*
X0120798Y0104693D01*
X0113383Y0104693D01*
X0114233Y0103843D01*
X0114465Y0103282D01*
X0126768Y0103282D01*
X0125633Y0104417D01*
X0124993Y0105963D01*
X0124993Y0107637D01*
X0125633Y0109183D01*
X0126817Y0110367D01*
X0128363Y0111007D01*
X0135237Y0111007D01*
X0136783Y0110367D01*
X0137967Y0109183D01*
X0138607Y0107637D01*
X0138607Y0105963D01*
X0137967Y0104417D01*
X0136832Y0103282D01*
X0143923Y0103282D01*
X0146832Y0100373D01*
X0148363Y0101007D01*
X0155237Y0101007D01*
X0156768Y0100373D01*
X0159677Y0103282D01*
X0176768Y0103282D01*
X0175633Y0104417D01*
X0174993Y0105963D01*
X0174993Y0107637D01*
X0175633Y0109183D01*
X0176817Y0110367D01*
X0178363Y0111007D01*
X0185237Y0111007D01*
X0186783Y0110367D01*
X0187967Y0109183D01*
X0188607Y0107637D01*
X0188607Y0105963D01*
X0187967Y0104417D01*
X0186832Y0103282D01*
X0191423Y0103282D01*
X0192657Y0102048D01*
X0194548Y0100157D01*
X0196607Y0100157D01*
X0196817Y0100367D01*
X0198363Y0101007D01*
X0205237Y0101007D01*
X0206783Y0100367D01*
X0207967Y0099183D01*
X0208607Y0097637D01*
X0208607Y0095963D01*
X0208014Y0094532D01*
X0219677Y0094532D01*
X0222802Y0097657D01*
X0225001Y0097657D01*
X0225633Y0099183D01*
X0226817Y0100367D01*
X0228363Y0101007D01*
X0235237Y0101007D01*
X0236783Y0100367D01*
X0237967Y0099183D01*
X0238607Y0097637D01*
X0238607Y0095963D01*
X0237967Y0094417D01*
X0236783Y0093233D01*
X0235237Y0092593D01*
X0228363Y0092593D01*
X0226817Y0093233D01*
X0226607Y0093443D01*
X0224548Y0093443D01*
X0222657Y0091552D01*
X0221423Y0090318D01*
X0206832Y0090318D01*
X0207967Y0089183D01*
X0208607Y0087637D01*
X0208607Y0085963D01*
X0208014Y0084532D01*
X0222177Y0084532D01*
X0224993Y0087348D01*
X0224993Y0087637D01*
X0225633Y0089183D01*
X0226817Y0090367D01*
X0228363Y0091007D01*
X0235237Y0091007D01*
X0236783Y0090367D01*
X0237967Y0089183D01*
X0238607Y0087637D01*
X0238607Y0085963D01*
X0237967Y0084417D01*
X0236783Y0083233D01*
X0235237Y0082593D01*
X0228363Y0082593D01*
X0226832Y0083227D01*
X0223923Y0080318D01*
X0206832Y0080318D01*
X0207967Y0079183D01*
X0208607Y0077637D01*
X0208607Y0075963D01*
X0208014Y0074532D01*
X0219677Y0074532D01*
X0222802Y0077657D01*
X0225001Y0077657D01*
X0225633Y0079183D01*
X0226817Y0080367D01*
X0228363Y0081007D01*
X0235237Y0081007D01*
X0236783Y0080367D01*
X0237967Y0079183D01*
X0238607Y0077637D01*
X0238607Y0075963D01*
X0237967Y0074417D01*
X0236783Y0073233D01*
X0235237Y0072593D01*
X0228363Y0072593D01*
X0226817Y0073233D01*
X0226607Y0073443D01*
X0224548Y0073443D01*
X0222657Y0071552D01*
X0221423Y0070318D01*
X0206832Y0070318D01*
X0207967Y0069183D01*
X0208607Y0067637D01*
X0208607Y0065963D01*
X0208014Y0064532D01*
X0219677Y0064532D01*
X0221568Y0066423D01*
X0221568Y0066423D01*
X0222802Y0067657D01*
X0225001Y0067657D01*
X0225633Y0069183D01*
X0226817Y0070367D01*
X0228363Y0071007D01*
X0235237Y0071007D01*
X0236783Y0070367D01*
X0237967Y0069183D01*
X0238607Y0067637D01*
X0238607Y0065963D01*
X0237967Y0064417D01*
X0236783Y0063233D01*
X0235237Y0062593D01*
X0228363Y0062593D01*
X0226817Y0063233D01*
X0226607Y0063443D01*
X0224548Y0063443D01*
X0222657Y0061552D01*
X0222657Y0061552D01*
X0221423Y0060318D01*
X0206832Y0060318D01*
X0207967Y0059183D01*
X0208607Y0057637D01*
X0208607Y0055963D01*
X0208014Y0054532D01*
X0219677Y0054532D01*
X0222802Y0057657D01*
X0225001Y0057657D01*
X0225633Y0059183D01*
X0226817Y0060367D01*
X0228363Y0061007D01*
X0235237Y0061007D01*
X0236783Y0060367D01*
X0237967Y0059183D01*
X0238607Y0057637D01*
X0238607Y0055963D01*
X0238014Y0054532D01*
X0239068Y0054532D01*
X0239068Y0107048D01*
X0240302Y0108282D01*
X0242043Y0110023D01*
X0242043Y0113770D01*
X0244830Y0116557D01*
X0248770Y0116557D01*
X0251557Y0113770D01*
X0251557Y0109830D01*
X0248770Y0107043D01*
X0245023Y0107043D01*
X0243282Y0105302D01*
X0243282Y0051552D01*
X0242048Y0050318D01*
X0236832Y0050318D01*
X0237967Y0049183D01*
X0238607Y0047637D01*
X0238607Y0045963D01*
X0237967Y0044417D01*
X0236783Y0043233D01*
X0235237Y0042593D01*
X0228363Y0042593D01*
X0226817Y0043233D01*
X0226607Y0043443D01*
X0224548Y0043443D01*
X0213282Y0032177D01*
X0213282Y0017802D01*
X0212048Y0016568D01*
X0203774Y0016568D01*
X0204157Y0015642D01*
X0204157Y0015380D01*
X0204977Y0016200D01*
X0206800Y0016200D01*
X0206800Y0011800D01*
X0206800Y0011800D01*
X0211200Y0011800D01*
X0211200Y0013623D01*
X0208623Y0016200D01*
X0206800Y0016200D01*
X0206800Y0011800D01*
X0206800Y0011800D01*
X0211200Y0011800D01*
X0211200Y0009977D01*
X0208623Y0007400D01*
X0206800Y0007400D01*
X0206800Y0011800D01*
X0206800Y0011800D01*
X0206800Y0007400D01*
X0204977Y0007400D01*
X0202400Y0009977D01*
X0202400Y0011787D01*
X0201267Y0011318D01*
X0199832Y0011318D01*
X0198507Y0011867D01*
X0197492Y0012882D01*
X0197001Y0014068D01*
X0180482Y0014068D01*
X0181007Y0013543D01*
X0181007Y0010057D01*
X0178543Y0007593D01*
X0175057Y0007593D01*
X0172593Y0010057D01*
X0172593Y0013543D01*
X0173118Y0014068D01*
X0160755Y0014068D01*
X0161200Y0013623D01*
X0161200Y0011800D01*
X0156800Y0011800D01*
X0156800Y0011800D01*
X0161200Y0011800D01*
X0161200Y0009977D01*
X0158623Y0007400D01*
X0156800Y0007400D01*
X0156800Y0011800D01*
X0156800Y0011800D01*
X0156800Y0011800D01*
X0152400Y0011800D01*
X0152400Y0013623D01*
X0152845Y0014068D01*
X0152673Y0014068D01*
X0150798Y0012193D01*
X0131007Y0012193D01*
X0131007Y0010057D01*
X0128543Y0007593D01*
X0125057Y0007593D01*
X0122593Y0010057D01*
X0122593Y0013543D01*
X0125057Y0016007D01*
X0125238Y0016007D01*
X0124677Y0016568D01*
X0105173Y0016568D01*
X0098923Y0010318D01*
X0081007Y0010318D01*
X0081007Y0010057D01*
X0078543Y0007593D01*
X0075057Y0007593D01*
X0072593Y0010057D01*
X0072593Y0013543D01*
X0073118Y0014068D01*
X0060755Y0014068D01*
X0061200Y0013623D01*
X0061200Y0011800D01*
X0056800Y0011800D01*
X0056800Y0011800D01*
X0061200Y0011800D01*
X0061200Y0009977D01*
X0058623Y0007400D01*
X0056800Y0007400D01*
X0056800Y0011800D01*
X0056800Y0011800D01*
X0056800Y0011800D01*
X0052400Y0011800D01*
X0052400Y0013623D01*
X0052845Y0014068D01*
X0047048Y0014068D01*
X0045798Y0012818D01*
X0014052Y0012818D01*
X0012818Y0014052D01*
X0012818Y0035798D01*
X0014052Y0037032D01*
X0017727Y0040706D01*
X0017618Y0040968D01*
X0017618Y0042632D01*
X0018255Y0044169D01*
X0019431Y0045345D01*
X0020968Y0045982D01*
X0022632Y0045982D01*
X0024068Y0045387D01*
X0024068Y0048213D01*
X0022632Y0047618D01*
X0020968Y0047618D01*
X0019431Y0048255D01*
X0018255Y0049431D01*
X0017618Y0050968D01*
X0017618Y0052632D01*
X0017727Y0052894D01*
X0012177Y0058443D01*
X0010943Y0059677D01*
X0010943Y0139548D01*
X0012177Y0140782D01*
X0034548Y0140782D01*
X0045798Y0129532D01*
X0047032Y0128298D01*
X0047032Y0119532D01*
X0087048Y0119532D01*
X0088923Y0117657D01*
X0089259Y0117657D01*
X0089081Y0117731D01*
X0087731Y0119081D01*
X0087000Y0120845D01*
X0087000Y0142000D01*
X0006600Y0142000D01*
X0006600Y0140870D02*
X0087000Y0140870D01*
X0087000Y0139272D02*
X0054278Y0139272D01*
X0054183Y0139367D02*
X0052637Y0140007D01*
X0050963Y0140007D01*
X0049417Y0139367D01*
X0048233Y0138183D01*
X0047593Y0136637D01*
X0047593Y0134963D01*
X0048233Y0133417D01*
X0049417Y0132233D01*
X0049837Y0132059D01*
X0047400Y0129623D01*
X0047400Y0127800D01*
X0051800Y0127800D01*
X0056200Y0127800D01*
X0056200Y0129623D01*
X0053763Y0132059D01*
X0054183Y0132233D01*
X0055367Y0133417D01*
X0056007Y0134963D01*
X0056007Y0136637D01*
X0055367Y0138183D01*
X0054183Y0139367D01*
X0055578Y0137673D02*
X0087000Y0137673D01*
X0087000Y0136075D02*
X0056007Y0136075D01*
X0055805Y0134476D02*
X0087000Y0134476D01*
X0087000Y0132878D02*
X0054828Y0132878D01*
X0054543Y0131279D02*
X0087000Y0131279D01*
X0087000Y0129681D02*
X0056142Y0129681D01*
X0056200Y0128082D02*
X0087000Y0128082D01*
X0087000Y0126484D02*
X0056200Y0126484D01*
X0056200Y0125977D02*
X0056200Y0127800D01*
X0051800Y0127800D01*
X0051800Y0127800D01*
X0051800Y0127800D01*
X0051800Y0123400D01*
X0053623Y0123400D01*
X0056200Y0125977D01*
X0055108Y0124885D02*
X0087000Y0124885D01*
X0087000Y0123287D02*
X0047032Y0123287D01*
X0047032Y0121688D02*
X0087000Y0121688D01*
X0087313Y0120090D02*
X0047032Y0120090D01*
X0049977Y0123400D02*
X0047400Y0125977D01*
X0047400Y0127800D01*
X0051800Y0127800D01*
X0051800Y0127800D01*
X0051800Y0123400D01*
X0049977Y0123400D01*
X0048492Y0124885D02*
X0047032Y0124885D01*
X0047032Y0126484D02*
X0047400Y0126484D01*
X0047400Y0128082D02*
X0047032Y0128082D01*
X0047458Y0129681D02*
X0045649Y0129681D01*
X0044050Y0131279D02*
X0049057Y0131279D01*
X0048772Y0132878D02*
X0042452Y0132878D01*
X0040853Y0134476D02*
X0047795Y0134476D01*
X0047593Y0136075D02*
X0039255Y0136075D01*
X0037656Y0137673D02*
X0048022Y0137673D01*
X0049322Y0139272D02*
X0036058Y0139272D01*
X0051800Y0126484D02*
X0051800Y0126484D01*
X0051800Y0124885D02*
X0051800Y0124885D01*
X0088089Y0118491D02*
X0088320Y0118491D01*
X0113971Y0104105D02*
X0125946Y0104105D01*
X0125101Y0105703D02*
X0121808Y0105703D01*
X0123407Y0107302D02*
X0124993Y0107302D01*
X0125005Y0108900D02*
X0125516Y0108900D01*
X0126604Y0110499D02*
X0127136Y0110499D01*
X0136464Y0110499D02*
X0140746Y0110499D01*
X0142345Y0108900D02*
X0138084Y0108900D01*
X0138607Y0107302D02*
X0143943Y0107302D01*
X0145101Y0105703D02*
X0138499Y0105703D01*
X0137654Y0104105D02*
X0145946Y0104105D01*
X0144699Y0102506D02*
X0158901Y0102506D01*
X0157303Y0100908D02*
X0155477Y0100908D01*
X0148123Y0100908D02*
X0146297Y0100908D01*
X0157654Y0104105D02*
X0175946Y0104105D01*
X0175101Y0105703D02*
X0169933Y0105703D01*
X0171532Y0107302D02*
X0174993Y0107302D01*
X0175516Y0108900D02*
X0173130Y0108900D01*
X0174729Y0110499D02*
X0177136Y0110499D01*
X0186464Y0110499D02*
X0186996Y0110499D01*
X0188084Y0108900D02*
X0195516Y0108900D01*
X0194993Y0107302D02*
X0188607Y0107302D01*
X0188499Y0105703D02*
X0195101Y0105703D01*
X0195946Y0104105D02*
X0187654Y0104105D01*
X0192199Y0102506D02*
X0239068Y0102506D01*
X0239068Y0100908D02*
X0235477Y0100908D01*
X0237841Y0099309D02*
X0239068Y0099309D01*
X0239068Y0097711D02*
X0238576Y0097711D01*
X0238607Y0096112D02*
X0239068Y0096112D01*
X0239068Y0094514D02*
X0238007Y0094514D01*
X0239068Y0092915D02*
X0236015Y0092915D01*
X0239068Y0091317D02*
X0222421Y0091317D01*
X0224020Y0092915D02*
X0227585Y0092915D01*
X0226168Y0089718D02*
X0207432Y0089718D01*
X0208407Y0088120D02*
X0225193Y0088120D01*
X0224166Y0086521D02*
X0208607Y0086521D01*
X0208176Y0084923D02*
X0222568Y0084923D01*
X0225330Y0081726D02*
X0239068Y0081726D01*
X0239068Y0080127D02*
X0237023Y0080127D01*
X0238238Y0078529D02*
X0239068Y0078529D01*
X0239068Y0076930D02*
X0238607Y0076930D01*
X0238345Y0075332D02*
X0239068Y0075332D01*
X0239068Y0073733D02*
X0237283Y0073733D01*
X0239068Y0072134D02*
X0223239Y0072134D01*
X0221641Y0070536D02*
X0227226Y0070536D01*
X0225532Y0068937D02*
X0208068Y0068937D01*
X0208607Y0067339D02*
X0222484Y0067339D01*
X0220886Y0065740D02*
X0208515Y0065740D01*
X0207803Y0059346D02*
X0225797Y0059346D01*
X0225039Y0057748D02*
X0208561Y0057748D01*
X0208607Y0056149D02*
X0221295Y0056149D01*
X0219696Y0054551D02*
X0208022Y0054551D01*
X0208081Y0044693D02*
X0219838Y0044693D01*
X0210302Y0035157D01*
X0209068Y0033923D01*
X0209068Y0020782D01*
X0193282Y0020782D01*
X0193282Y0027177D01*
X0197048Y0030943D01*
X0197712Y0030943D01*
X0197511Y0030878D01*
X0196894Y0030563D01*
X0196334Y0030156D01*
X0195844Y0029666D01*
X0195437Y0029106D01*
X0195122Y0028489D01*
X0194908Y0027830D01*
X0194800Y0027146D01*
X0194800Y0026800D01*
X0201800Y0026800D01*
X0201800Y0026800D01*
X0201800Y0031200D01*
X0204746Y0031200D01*
X0205430Y0031092D01*
X0206089Y0030878D01*
X0206706Y0030563D01*
X0207266Y0030156D01*
X0207756Y0029666D01*
X0208163Y0029106D01*
X0208478Y0028489D01*
X0208692Y0027830D01*
X0208800Y0027146D01*
X0208800Y0026800D01*
X0201800Y0026800D01*
X0201800Y0026800D01*
X0201800Y0031200D01*
X0199180Y0031200D01*
X0200157Y0032177D01*
X0200573Y0032593D01*
X0205237Y0032593D01*
X0206783Y0033233D01*
X0207967Y0034417D01*
X0208607Y0035963D01*
X0208607Y0037637D01*
X0207967Y0039183D01*
X0206783Y0040367D01*
X0205237Y0041007D01*
X0198363Y0041007D01*
X0196817Y0040367D01*
X0195633Y0039183D01*
X0194993Y0037637D01*
X0194993Y0035963D01*
X0195327Y0035157D01*
X0195302Y0035157D01*
X0190302Y0030157D01*
X0189068Y0028923D01*
X0189068Y0022657D01*
X0185927Y0022657D01*
X0185302Y0022032D01*
X0136044Y0022032D01*
X0135534Y0022542D01*
X0136089Y0022722D01*
X0136706Y0023037D01*
X0137266Y0023444D01*
X0137756Y0023934D01*
X0138163Y0024494D01*
X0138478Y0025111D01*
X0138692Y0025770D01*
X0138800Y0026454D01*
X0138800Y0026800D01*
X0138800Y0027146D01*
X0138692Y0027830D01*
X0138478Y0028489D01*
X0138163Y0029106D01*
X0137756Y0029666D01*
X0137266Y0030156D01*
X0137044Y0030318D01*
X0146556Y0030318D01*
X0146334Y0030156D01*
X0145844Y0029666D01*
X0145437Y0029106D01*
X0145122Y0028489D01*
X0144908Y0027830D01*
X0144800Y0027146D01*
X0144800Y0026800D01*
X0151800Y0026800D01*
X0158800Y0026800D01*
X0158800Y0027146D01*
X0158692Y0027830D01*
X0158478Y0028489D01*
X0158163Y0029106D01*
X0157756Y0029666D01*
X0157266Y0030156D01*
X0157044Y0030318D01*
X0160173Y0030318D01*
X0161407Y0031552D01*
X0163298Y0033443D01*
X0176607Y0033443D01*
X0176817Y0033233D01*
X0178363Y0032593D01*
X0185237Y0032593D01*
X0186783Y0033233D01*
X0187967Y0034417D01*
X0188607Y0035963D01*
X0188607Y0037637D01*
X0187967Y0039183D01*
X0186832Y0040318D01*
X0193923Y0040318D01*
X0196832Y0043227D01*
X0198363Y0042593D01*
X0205237Y0042593D01*
X0206783Y0043233D01*
X0207967Y0044417D01*
X0208081Y0044693D01*
X0206911Y0043361D02*
X0218506Y0043361D01*
X0216908Y0041763D02*
X0195368Y0041763D01*
X0196615Y0040164D02*
X0186985Y0040164D01*
X0188222Y0038566D02*
X0195378Y0038566D01*
X0194993Y0036967D02*
X0188607Y0036967D01*
X0188361Y0035369D02*
X0195239Y0035369D01*
X0193915Y0033770D02*
X0187320Y0033770D01*
X0192317Y0032172D02*
X0162027Y0032172D01*
X0160428Y0030573D02*
X0176914Y0030573D01*
X0176894Y0030563D02*
X0176334Y0030156D01*
X0175844Y0029666D01*
X0175437Y0029106D01*
X0175122Y0028489D01*
X0174908Y0027830D01*
X0174800Y0027146D01*
X0174800Y0026800D01*
X0181800Y0026800D01*
X0181800Y0026800D01*
X0181800Y0031200D01*
X0184746Y0031200D01*
X0185430Y0031092D01*
X0186089Y0030878D01*
X0186706Y0030563D01*
X0187266Y0030156D01*
X0187756Y0029666D01*
X0188163Y0029106D01*
X0188478Y0028489D01*
X0188692Y0027830D01*
X0188800Y0027146D01*
X0188800Y0026800D01*
X0181800Y0026800D01*
X0181800Y0026800D01*
X0181800Y0031200D01*
X0178854Y0031200D01*
X0178170Y0031092D01*
X0177511Y0030878D01*
X0176894Y0030563D01*
X0175370Y0028975D02*
X0158230Y0028975D01*
X0158764Y0027376D02*
X0174836Y0027376D01*
X0174800Y0026800D02*
X0174800Y0026454D01*
X0174908Y0025770D01*
X0175122Y0025111D01*
X0175437Y0024494D01*
X0175844Y0023934D01*
X0176334Y0023444D01*
X0176894Y0023037D01*
X0177511Y0022722D01*
X0178170Y0022508D01*
X0178854Y0022400D01*
X0181800Y0022400D01*
X0184746Y0022400D01*
X0185430Y0022508D01*
X0186089Y0022722D01*
X0186706Y0023037D01*
X0187266Y0023444D01*
X0187756Y0023934D01*
X0188163Y0024494D01*
X0188478Y0025111D01*
X0188692Y0025770D01*
X0188800Y0026454D01*
X0188800Y0026800D01*
X0181800Y0026800D01*
X0181800Y0022400D01*
X0181800Y0026800D01*
X0181800Y0026800D01*
X0181800Y0026800D01*
X0174800Y0026800D01*
X0174907Y0025778D02*
X0158693Y0025778D01*
X0158692Y0025770D02*
X0158800Y0026454D01*
X0158800Y0026800D01*
X0151800Y0026800D01*
X0151800Y0026800D01*
X0151800Y0022400D01*
X0154746Y0022400D01*
X0155430Y0022508D01*
X0156089Y0022722D01*
X0156706Y0023037D01*
X0157266Y0023444D01*
X0157756Y0023934D01*
X0158163Y0024494D01*
X0158478Y0025111D01*
X0158692Y0025770D01*
X0157935Y0024179D02*
X0175665Y0024179D01*
X0177947Y0022581D02*
X0155653Y0022581D01*
X0151800Y0022581D02*
X0151800Y0022581D01*
X0151800Y0022400D02*
X0151800Y0026800D01*
X0151800Y0026800D01*
X0151800Y0026800D01*
X0144800Y0026800D01*
X0144800Y0026454D01*
X0144908Y0025770D01*
X0145122Y0025111D01*
X0145437Y0024494D01*
X0145844Y0023934D01*
X0146334Y0023444D01*
X0146894Y0023037D01*
X0147511Y0022722D01*
X0148170Y0022508D01*
X0148854Y0022400D01*
X0151800Y0022400D01*
X0151800Y0024179D02*
X0151800Y0024179D01*
X0151800Y0025778D02*
X0151800Y0025778D01*
X0147947Y0022581D02*
X0135653Y0022581D01*
X0137935Y0024179D02*
X0145665Y0024179D01*
X0144907Y0025778D02*
X0138693Y0025778D01*
X0138800Y0026800D02*
X0131800Y0026800D01*
X0138800Y0026800D01*
X0138764Y0027376D02*
X0144836Y0027376D01*
X0145370Y0028975D02*
X0138230Y0028975D01*
X0131800Y0026800D02*
X0131800Y0026800D01*
X0131800Y0026800D01*
X0124800Y0026800D01*
X0124800Y0027146D01*
X0124908Y0027830D01*
X0125122Y0028489D01*
X0125437Y0029106D01*
X0125844Y0029666D01*
X0126334Y0030156D01*
X0126556Y0030318D01*
X0126423Y0030318D01*
X0123282Y0027177D01*
X0122048Y0025943D01*
X0111552Y0025943D01*
X0107177Y0030318D01*
X0107044Y0030318D01*
X0107266Y0030156D01*
X0107756Y0029666D01*
X0108163Y0029106D01*
X0108478Y0028489D01*
X0108692Y0027830D01*
X0108800Y0027146D01*
X0108800Y0026800D01*
X0101800Y0026800D01*
X0101800Y0026800D01*
X0101800Y0026800D01*
X0094800Y0026800D01*
X0094800Y0027146D01*
X0094908Y0027830D01*
X0095122Y0028489D01*
X0095437Y0029106D01*
X0095844Y0029666D01*
X0096334Y0030156D01*
X0096556Y0030318D01*
X0089677Y0030318D01*
X0086768Y0033227D01*
X0085237Y0032593D01*
X0079751Y0032593D01*
X0079782Y0032517D01*
X0079782Y0031200D01*
X0081800Y0031200D01*
X0081800Y0026800D01*
X0081800Y0026800D01*
X0088800Y0026800D01*
X0088800Y0027146D01*
X0088692Y0027830D01*
X0088478Y0028489D01*
X0088163Y0029106D01*
X0087756Y0029666D01*
X0087266Y0030156D01*
X0086706Y0030563D01*
X0086089Y0030878D01*
X0085430Y0031092D01*
X0084746Y0031200D01*
X0081800Y0031200D01*
X0081800Y0026800D01*
X0081800Y0026800D01*
X0088800Y0026800D01*
X0088800Y0026454D01*
X0088692Y0025770D01*
X0088478Y0025111D01*
X0088163Y0024494D01*
X0087756Y0023934D01*
X0087266Y0023444D01*
X0086706Y0023037D01*
X0086430Y0022896D01*
X0087294Y0022032D01*
X0097556Y0022032D01*
X0098066Y0022542D01*
X0097511Y0022722D01*
X0096894Y0023037D01*
X0096334Y0023444D01*
X0095844Y0023934D01*
X0095437Y0024494D01*
X0095122Y0025111D01*
X0094908Y0025770D01*
X0094800Y0026454D01*
X0094800Y0026800D01*
X0101800Y0026800D01*
X0108800Y0026800D01*
X0108800Y0026454D01*
X0108692Y0025770D01*
X0108478Y0025111D01*
X0108163Y0024494D01*
X0107756Y0023934D01*
X0107266Y0023444D01*
X0106706Y0023037D01*
X0106089Y0022722D01*
X0105888Y0022657D01*
X0127673Y0022657D01*
X0128298Y0022032D01*
X0128923Y0022032D01*
X0129698Y0021257D01*
X0129992Y0021968D01*
X0130424Y0022400D01*
X0128854Y0022400D01*
X0128170Y0022508D01*
X0127511Y0022722D01*
X0126894Y0023037D01*
X0126334Y0023444D01*
X0125844Y0023934D01*
X0125437Y0024494D01*
X0125122Y0025111D01*
X0124908Y0025770D01*
X0124800Y0026454D01*
X0124800Y0026800D01*
X0131800Y0026800D01*
X0127947Y0022581D02*
X0127749Y0022581D01*
X0125665Y0024179D02*
X0107935Y0024179D01*
X0108693Y0025778D02*
X0124907Y0025778D01*
X0124836Y0027376D02*
X0123481Y0027376D01*
X0125080Y0028975D02*
X0125370Y0028975D01*
X0122317Y0032172D02*
X0111283Y0032172D01*
X0110157Y0033298D02*
X0108923Y0034532D01*
X0108014Y0034532D01*
X0108607Y0035963D01*
X0108607Y0037637D01*
X0108014Y0039068D01*
X0125586Y0039068D01*
X0124993Y0037637D01*
X0124993Y0035963D01*
X0125586Y0034532D01*
X0124677Y0034532D01*
X0120302Y0030157D01*
X0113298Y0030157D01*
X0110157Y0033298D01*
X0109685Y0033770D02*
X0123915Y0033770D01*
X0125239Y0035369D02*
X0108361Y0035369D01*
X0108607Y0036967D02*
X0124993Y0036967D01*
X0125378Y0038566D02*
X0108222Y0038566D01*
X0112882Y0030573D02*
X0120718Y0030573D01*
X0110119Y0027376D02*
X0108764Y0027376D01*
X0108520Y0028975D02*
X0108230Y0028975D01*
X0097947Y0022581D02*
X0086746Y0022581D01*
X0087935Y0024179D02*
X0095665Y0024179D01*
X0094907Y0025778D02*
X0088693Y0025778D01*
X0088764Y0027376D02*
X0094836Y0027376D01*
X0095370Y0028975D02*
X0088230Y0028975D01*
X0089422Y0030573D02*
X0086686Y0030573D01*
X0087823Y0032172D02*
X0079782Y0032172D01*
X0081800Y0030573D02*
X0081800Y0030573D01*
X0081800Y0028975D02*
X0081800Y0028975D01*
X0081800Y0027376D02*
X0081800Y0027376D01*
X0081800Y0026800D02*
X0081800Y0026800D01*
X0074800Y0026800D01*
X0074800Y0027146D01*
X0074908Y0027830D01*
X0075077Y0028350D01*
X0074637Y0028533D01*
X0072032Y0025927D01*
X0072032Y0025419D01*
X0072983Y0024468D01*
X0073532Y0023142D01*
X0073532Y0021707D01*
X0073149Y0020782D01*
X0080751Y0020782D01*
X0081242Y0021968D01*
X0081674Y0022400D01*
X0078854Y0022400D01*
X0078170Y0022508D01*
X0077511Y0022722D01*
X0076894Y0023037D01*
X0076334Y0023444D01*
X0075844Y0023934D01*
X0075437Y0024494D01*
X0075122Y0025111D01*
X0074908Y0025770D01*
X0074800Y0026454D01*
X0074800Y0026800D01*
X0081800Y0026800D01*
X0077947Y0022581D02*
X0073532Y0022581D01*
X0073232Y0020982D02*
X0080834Y0020982D01*
X0075665Y0024179D02*
X0073103Y0024179D01*
X0072032Y0025778D02*
X0074907Y0025778D01*
X0074836Y0027376D02*
X0073481Y0027376D01*
X0067593Y0030573D02*
X0056686Y0030573D01*
X0056706Y0030563D02*
X0056089Y0030878D01*
X0055430Y0031092D01*
X0054746Y0031200D01*
X0051800Y0031200D01*
X0051800Y0026800D01*
X0051800Y0026800D01*
X0058800Y0026800D01*
X0058800Y0027146D01*
X0058692Y0027830D01*
X0058478Y0028489D01*
X0058163Y0029106D01*
X0057756Y0029666D01*
X0057266Y0030156D01*
X0056706Y0030563D01*
X0058230Y0028975D02*
X0065995Y0028975D01*
X0064396Y0027376D02*
X0058764Y0027376D01*
X0058800Y0026800D02*
X0051800Y0026800D01*
X0051800Y0026800D01*
X0051800Y0026800D01*
X0044800Y0026800D01*
X0044800Y0027146D01*
X0044908Y0027830D01*
X0045122Y0028489D01*
X0045437Y0029106D01*
X0045844Y0029666D01*
X0046334Y0030156D01*
X0046894Y0030563D01*
X0047511Y0030878D01*
X0048170Y0031092D01*
X0048854Y0031200D01*
X0051800Y0031200D01*
X0051800Y0026800D01*
X0044800Y0026800D01*
X0044800Y0026454D01*
X0044908Y0025770D01*
X0045122Y0025111D01*
X0045437Y0024494D01*
X0045844Y0023934D01*
X0046334Y0023444D01*
X0046894Y0023037D01*
X0047511Y0022722D01*
X0047712Y0022657D01*
X0044532Y0022657D01*
X0044532Y0027673D01*
X0043298Y0028907D01*
X0034014Y0038191D01*
X0034169Y0038255D01*
X0035345Y0039431D01*
X0035454Y0039693D01*
X0046143Y0039693D01*
X0045633Y0039183D01*
X0044993Y0037637D01*
X0044993Y0035963D01*
X0045633Y0034417D01*
X0046817Y0033233D01*
X0048363Y0032593D01*
X0055237Y0032593D01*
X0056783Y0033233D01*
X0057967Y0034417D01*
X0058081Y0034693D01*
X0065798Y0034693D01*
X0067032Y0035927D01*
X0070173Y0039068D01*
X0075586Y0039068D01*
X0075001Y0037657D01*
X0071552Y0037657D01*
X0070318Y0036423D01*
X0070318Y0033298D01*
X0059677Y0022657D01*
X0055888Y0022657D01*
X0056089Y0022722D01*
X0056706Y0023037D01*
X0057266Y0023444D01*
X0057756Y0023934D01*
X0058163Y0024494D01*
X0058478Y0025111D01*
X0058692Y0025770D01*
X0058800Y0026454D01*
X0058800Y0026800D01*
X0058693Y0025778D02*
X0062798Y0025778D01*
X0061199Y0024179D02*
X0057935Y0024179D01*
X0051800Y0027376D02*
X0051800Y0027376D01*
X0051800Y0028975D02*
X0051800Y0028975D01*
X0051800Y0030573D02*
X0051800Y0030573D01*
X0046914Y0030573D02*
X0041632Y0030573D01*
X0043230Y0028975D02*
X0045370Y0028975D01*
X0044836Y0027376D02*
X0044532Y0027376D01*
X0044532Y0025778D02*
X0044907Y0025778D01*
X0044532Y0024179D02*
X0045665Y0024179D01*
X0038443Y0022177D02*
X0038443Y0017802D01*
X0039213Y0017032D01*
X0017032Y0017032D01*
X0017032Y0034052D01*
X0020706Y0037727D01*
X0020968Y0037618D01*
X0022632Y0037618D01*
X0024068Y0038213D01*
X0024068Y0035927D01*
X0025302Y0034693D01*
X0028779Y0034693D01*
X0028255Y0034169D01*
X0027618Y0032632D01*
X0027618Y0030968D01*
X0028255Y0029431D01*
X0029431Y0028255D01*
X0030968Y0027618D01*
X0032632Y0027618D01*
X0032894Y0027727D01*
X0038443Y0022177D01*
X0038039Y0022581D02*
X0036106Y0022581D01*
X0036067Y0022824D02*
X0035854Y0023479D01*
X0035542Y0024093D01*
X0035137Y0024650D01*
X0034650Y0025137D01*
X0034093Y0025542D01*
X0033479Y0025854D01*
X0032824Y0026067D01*
X0032144Y0026175D01*
X0031800Y0026175D01*
X0031800Y0021800D01*
X0036175Y0021800D01*
X0036175Y0022144D01*
X0036067Y0022824D01*
X0036175Y0021800D02*
X0031800Y0021800D01*
X0031800Y0021800D01*
X0031800Y0021800D01*
X0031800Y0017425D01*
X0032144Y0017425D01*
X0032824Y0017533D01*
X0033479Y0017746D01*
X0034093Y0018058D01*
X0034650Y0018463D01*
X0035137Y0018950D01*
X0035542Y0019507D01*
X0035854Y0020121D01*
X0036067Y0020776D01*
X0036175Y0021456D01*
X0036175Y0021800D01*
X0036100Y0020982D02*
X0038443Y0020982D01*
X0038443Y0019384D02*
X0035452Y0019384D01*
X0031800Y0019384D02*
X0031800Y0019384D01*
X0031800Y0020982D02*
X0031800Y0020982D01*
X0031800Y0021800D02*
X0031800Y0021800D01*
X0031800Y0021800D01*
X0027425Y0021800D01*
X0027425Y0022144D01*
X0027533Y0022824D01*
X0027746Y0023479D01*
X0028058Y0024093D01*
X0028463Y0024650D01*
X0028950Y0025137D01*
X0029507Y0025542D01*
X0030121Y0025854D01*
X0030776Y0026067D01*
X0031456Y0026175D01*
X0031800Y0026175D01*
X0031800Y0021800D01*
X0031800Y0017425D01*
X0031456Y0017425D01*
X0030776Y0017533D01*
X0030121Y0017746D01*
X0029507Y0018058D01*
X0028950Y0018463D01*
X0028463Y0018950D01*
X0028058Y0019507D01*
X0027746Y0020121D01*
X0027533Y0020776D01*
X0027425Y0021456D01*
X0027425Y0021800D01*
X0031800Y0021800D01*
X0031800Y0022581D02*
X0031800Y0022581D01*
X0031800Y0024179D02*
X0031800Y0024179D01*
X0031800Y0025778D02*
X0031800Y0025778D01*
X0033630Y0025778D02*
X0034842Y0025778D01*
X0035479Y0024179D02*
X0036441Y0024179D01*
X0033244Y0027376D02*
X0017032Y0027376D01*
X0017032Y0025778D02*
X0019970Y0025778D01*
X0020121Y0025854D02*
X0019507Y0025542D01*
X0018950Y0025137D01*
X0018463Y0024650D01*
X0018058Y0024093D01*
X0017746Y0023479D01*
X0017533Y0022824D01*
X0017425Y0022144D01*
X0017425Y0021800D01*
X0021800Y0021800D01*
X0026175Y0021800D01*
X0026175Y0022144D01*
X0026067Y0022824D01*
X0025854Y0023479D01*
X0025542Y0024093D01*
X0025137Y0024650D01*
X0024650Y0025137D01*
X0024093Y0025542D01*
X0023479Y0025854D01*
X0022824Y0026067D01*
X0022144Y0026175D01*
X0021800Y0026175D01*
X0021800Y0021800D01*
X0021800Y0021800D01*
X0021800Y0021800D01*
X0026175Y0021800D01*
X0026175Y0021456D01*
X0026067Y0020776D01*
X0025854Y0020121D01*
X0025542Y0019507D01*
X0025137Y0018950D01*
X0024650Y0018463D01*
X0024093Y0018058D01*
X0023479Y0017746D01*
X0022824Y0017533D01*
X0022144Y0017425D01*
X0021800Y0017425D01*
X0021800Y0021800D01*
X0021800Y0021800D01*
X0021800Y0021800D01*
X0021800Y0026175D01*
X0021456Y0026175D01*
X0020776Y0026067D01*
X0020121Y0025854D01*
X0021800Y0025778D02*
X0021800Y0025778D01*
X0021800Y0024179D02*
X0021800Y0024179D01*
X0021800Y0022581D02*
X0021800Y0022581D01*
X0021800Y0021800D02*
X0017425Y0021800D01*
X0017425Y0021456D01*
X0017533Y0020776D01*
X0017746Y0020121D01*
X0018058Y0019507D01*
X0018463Y0018950D01*
X0018950Y0018463D01*
X0019507Y0018058D01*
X0020121Y0017746D01*
X0020776Y0017533D01*
X0021456Y0017425D01*
X0021800Y0017425D01*
X0021800Y0021800D01*
X0021800Y0020982D02*
X0021800Y0020982D01*
X0021800Y0019384D02*
X0021800Y0019384D01*
X0025452Y0019384D02*
X0028148Y0019384D01*
X0027500Y0020982D02*
X0026100Y0020982D01*
X0026106Y0022581D02*
X0027494Y0022581D01*
X0028121Y0024179D02*
X0025479Y0024179D01*
X0023630Y0025778D02*
X0029970Y0025778D01*
X0028711Y0028975D02*
X0025155Y0028975D01*
X0025137Y0028950D02*
X0025542Y0029507D01*
X0025854Y0030121D01*
X0026067Y0030776D01*
X0026175Y0031456D01*
X0026175Y0031800D01*
X0026175Y0032144D01*
X0026067Y0032824D01*
X0025854Y0033479D01*
X0025542Y0034093D01*
X0025137Y0034650D01*
X0024650Y0035137D01*
X0024093Y0035542D01*
X0023479Y0035854D01*
X0022824Y0036067D01*
X0022144Y0036175D01*
X0021800Y0036175D01*
X0021800Y0031800D01*
X0026175Y0031800D01*
X0021800Y0031800D01*
X0021800Y0031800D01*
X0021800Y0031800D01*
X0021800Y0027425D01*
X0022144Y0027425D01*
X0022824Y0027533D01*
X0023479Y0027746D01*
X0024093Y0028058D01*
X0024650Y0028463D01*
X0025137Y0028950D01*
X0026001Y0030573D02*
X0027782Y0030573D01*
X0027618Y0032172D02*
X0026170Y0032172D01*
X0025706Y0033770D02*
X0028090Y0033770D01*
X0024626Y0035369D02*
X0024331Y0035369D01*
X0024068Y0036967D02*
X0019947Y0036967D01*
X0020121Y0035854D02*
X0019507Y0035542D01*
X0018950Y0035137D01*
X0018463Y0034650D01*
X0018058Y0034093D01*
X0017746Y0033479D01*
X0017533Y0032824D01*
X0017425Y0032144D01*
X0017425Y0031800D01*
X0021800Y0031800D01*
X0021800Y0031800D01*
X0021800Y0031800D01*
X0021800Y0036175D01*
X0021456Y0036175D01*
X0020776Y0036067D01*
X0020121Y0035854D01*
X0019269Y0035369D02*
X0018349Y0035369D01*
X0017894Y0033770D02*
X0017032Y0033770D01*
X0017032Y0032172D02*
X0017430Y0032172D01*
X0017425Y0031800D02*
X0017425Y0031456D01*
X0017533Y0030776D01*
X0017746Y0030121D01*
X0018058Y0029507D01*
X0018463Y0028950D01*
X0018950Y0028463D01*
X0019507Y0028058D01*
X0020121Y0027746D01*
X0020776Y0027533D01*
X0021456Y0027425D01*
X0021800Y0027425D01*
X0021800Y0031800D01*
X0017425Y0031800D01*
X0017599Y0030573D02*
X0017032Y0030573D01*
X0017032Y0028975D02*
X0018445Y0028975D01*
X0021800Y0028975D02*
X0021800Y0028975D01*
X0021800Y0030573D02*
X0021800Y0030573D01*
X0021800Y0032172D02*
X0021800Y0032172D01*
X0021800Y0033770D02*
X0021800Y0033770D01*
X0021800Y0035369D02*
X0021800Y0035369D01*
X0015586Y0038566D02*
X0006600Y0038566D01*
X0006600Y0036967D02*
X0013987Y0036967D01*
X0012818Y0035369D02*
X0006600Y0035369D01*
X0006600Y0033770D02*
X0012818Y0033770D01*
X0012818Y0032172D02*
X0006600Y0032172D01*
X0006600Y0030573D02*
X0012818Y0030573D01*
X0012818Y0028975D02*
X0006600Y0028975D01*
X0006600Y0027376D02*
X0012818Y0027376D01*
X0012818Y0025778D02*
X0006600Y0025778D01*
X0006600Y0024179D02*
X0012818Y0024179D01*
X0012818Y0022581D02*
X0006600Y0022581D01*
X0006600Y0020982D02*
X0012818Y0020982D01*
X0012818Y0019384D02*
X0006600Y0019384D01*
X0006600Y0017785D02*
X0012818Y0017785D01*
X0012818Y0016187D02*
X0006600Y0016187D01*
X0006600Y0014588D02*
X0012818Y0014588D01*
X0013881Y0012990D02*
X0006600Y0012990D01*
X0006600Y0011391D02*
X0052400Y0011391D01*
X0052400Y0011800D02*
X0052400Y0009977D01*
X0054977Y0007400D01*
X0056800Y0007400D01*
X0056800Y0011800D01*
X0052400Y0011800D01*
X0052400Y0012990D02*
X0045969Y0012990D01*
X0052585Y0009793D02*
X0006600Y0009793D01*
X0006600Y0008194D02*
X0054183Y0008194D01*
X0056800Y0008194D02*
X0056800Y0008194D01*
X0056800Y0009793D02*
X0056800Y0009793D01*
X0056800Y0011391D02*
X0056800Y0011391D01*
X0059417Y0008194D02*
X0074456Y0008194D01*
X0072858Y0009793D02*
X0061015Y0009793D01*
X0061200Y0011391D02*
X0072593Y0011391D01*
X0072593Y0012990D02*
X0061200Y0012990D01*
X0079144Y0008194D02*
X0104183Y0008194D01*
X0104977Y0007400D02*
X0102400Y0009977D01*
X0102400Y0011800D01*
X0106800Y0011800D01*
X0111200Y0011800D01*
X0111200Y0013623D01*
X0108623Y0016200D01*
X0106800Y0016200D01*
X0106800Y0011800D01*
X0106800Y0011800D01*
X0106800Y0011800D01*
X0111200Y0011800D01*
X0111200Y0009977D01*
X0108623Y0007400D01*
X0106800Y0007400D01*
X0106800Y0011800D01*
X0106800Y0011800D01*
X0106800Y0011800D01*
X0106800Y0016200D01*
X0104977Y0016200D01*
X0102400Y0013623D01*
X0102400Y0011800D01*
X0106800Y0011800D01*
X0106800Y0007400D01*
X0104977Y0007400D01*
X0106800Y0008194D02*
X0106800Y0008194D01*
X0106800Y0009793D02*
X0106800Y0009793D01*
X0106800Y0011391D02*
X0106800Y0011391D01*
X0106800Y0012990D02*
X0106800Y0012990D01*
X0106800Y0014588D02*
X0106800Y0014588D01*
X0106800Y0016187D02*
X0106800Y0016187D01*
X0108636Y0016187D02*
X0125059Y0016187D01*
X0123638Y0014588D02*
X0110234Y0014588D01*
X0111200Y0012990D02*
X0122593Y0012990D01*
X0122593Y0011391D02*
X0111200Y0011391D01*
X0111015Y0009793D02*
X0122858Y0009793D01*
X0124456Y0008194D02*
X0109417Y0008194D01*
X0102585Y0009793D02*
X0080742Y0009793D01*
X0099996Y0011391D02*
X0102400Y0011391D01*
X0102400Y0012990D02*
X0101594Y0012990D01*
X0103193Y0014588D02*
X0103366Y0014588D01*
X0104791Y0016187D02*
X0104964Y0016187D01*
X0129144Y0008194D02*
X0154183Y0008194D01*
X0154977Y0007400D02*
X0152400Y0009977D01*
X0152400Y0011800D01*
X0156800Y0011800D01*
X0156800Y0007400D01*
X0154977Y0007400D01*
X0156800Y0008194D02*
X0156800Y0008194D01*
X0156800Y0009793D02*
X0156800Y0009793D01*
X0156800Y0011391D02*
X0156800Y0011391D01*
X0159417Y0008194D02*
X0174456Y0008194D01*
X0172858Y0009793D02*
X0161015Y0009793D01*
X0161200Y0011391D02*
X0172593Y0011391D01*
X0172593Y0012990D02*
X0161200Y0012990D01*
X0152400Y0012990D02*
X0151594Y0012990D01*
X0152400Y0011391D02*
X0131007Y0011391D01*
X0130742Y0009793D02*
X0152585Y0009793D01*
X0179144Y0008194D02*
X0204183Y0008194D01*
X0202585Y0009793D02*
X0180742Y0009793D01*
X0181007Y0011391D02*
X0199656Y0011391D01*
X0201444Y0011391D02*
X0202400Y0011391D01*
X0206800Y0011391D02*
X0206800Y0011391D01*
X0206800Y0009793D02*
X0206800Y0009793D01*
X0206800Y0008194D02*
X0206800Y0008194D01*
X0209417Y0008194D02*
X0224456Y0008194D01*
X0225057Y0007593D02*
X0228543Y0007593D01*
X0231007Y0010057D01*
X0231007Y0013543D01*
X0228543Y0016007D01*
X0225057Y0016007D01*
X0222593Y0013543D01*
X0222593Y0010057D01*
X0225057Y0007593D01*
X0222858Y0009793D02*
X0211015Y0009793D01*
X0211200Y0011391D02*
X0222593Y0011391D01*
X0222593Y0012990D02*
X0211200Y0012990D01*
X0210234Y0014588D02*
X0223638Y0014588D01*
X0229962Y0014588D02*
X0257000Y0014588D01*
X0257000Y0012990D02*
X0231007Y0012990D01*
X0231007Y0011391D02*
X0257000Y0011391D01*
X0257000Y0009793D02*
X0230742Y0009793D01*
X0229144Y0008194D02*
X0257000Y0008194D01*
X0257000Y0016187D02*
X0208636Y0016187D01*
X0206800Y0016187D02*
X0206800Y0016187D01*
X0206800Y0014588D02*
X0206800Y0014588D01*
X0206800Y0012990D02*
X0206800Y0012990D01*
X0204964Y0016187D02*
X0203932Y0016187D01*
X0197447Y0012990D02*
X0181007Y0012990D01*
X0193282Y0020982D02*
X0209068Y0020982D01*
X0209068Y0022581D02*
X0205653Y0022581D01*
X0205430Y0022508D02*
X0206089Y0022722D01*
X0206706Y0023037D01*
X0207266Y0023444D01*
X0207756Y0023934D01*
X0208163Y0024494D01*
X0208478Y0025111D01*
X0208692Y0025770D01*
X0208800Y0026454D01*
X0208800Y0026800D01*
X0201800Y0026800D01*
X0201800Y0022400D01*
X0204746Y0022400D01*
X0205430Y0022508D01*
X0207935Y0024179D02*
X0209068Y0024179D01*
X0209068Y0025778D02*
X0208693Y0025778D01*
X0208764Y0027376D02*
X0209068Y0027376D01*
X0209068Y0028975D02*
X0208230Y0028975D01*
X0209068Y0030573D02*
X0206686Y0030573D01*
X0209068Y0032172D02*
X0200152Y0032172D01*
X0201800Y0030573D02*
X0201800Y0030573D01*
X0201800Y0028975D02*
X0201800Y0028975D01*
X0201800Y0027376D02*
X0201800Y0027376D01*
X0201800Y0026800D02*
X0201800Y0026800D01*
X0201800Y0026800D01*
X0201800Y0022400D01*
X0198854Y0022400D01*
X0198170Y0022508D01*
X0197511Y0022722D01*
X0196894Y0023037D01*
X0196334Y0023444D01*
X0195844Y0023934D01*
X0195437Y0024494D01*
X0195122Y0025111D01*
X0194908Y0025770D01*
X0194800Y0026454D01*
X0194800Y0026800D01*
X0201800Y0026800D01*
X0201800Y0025778D02*
X0201800Y0025778D01*
X0201800Y0024179D02*
X0201800Y0024179D01*
X0201800Y0022581D02*
X0201800Y0022581D01*
X0197947Y0022581D02*
X0193282Y0022581D01*
X0193282Y0024179D02*
X0195665Y0024179D01*
X0194907Y0025778D02*
X0193282Y0025778D01*
X0193481Y0027376D02*
X0194836Y0027376D01*
X0195080Y0028975D02*
X0195370Y0028975D01*
X0196678Y0030573D02*
X0196914Y0030573D01*
X0190718Y0030573D02*
X0186686Y0030573D01*
X0188230Y0028975D02*
X0189120Y0028975D01*
X0189068Y0027376D02*
X0188764Y0027376D01*
X0188693Y0025778D02*
X0189068Y0025778D01*
X0189068Y0024179D02*
X0187935Y0024179D01*
X0185851Y0022581D02*
X0185653Y0022581D01*
X0181800Y0022581D02*
X0181800Y0022581D01*
X0181800Y0024179D02*
X0181800Y0024179D01*
X0181800Y0025778D02*
X0181800Y0025778D01*
X0181800Y0027376D02*
X0181800Y0027376D01*
X0181800Y0028975D02*
X0181800Y0028975D01*
X0181800Y0030573D02*
X0181800Y0030573D01*
X0207320Y0033770D02*
X0209068Y0033770D01*
X0208361Y0035369D02*
X0210514Y0035369D01*
X0212112Y0036967D02*
X0208607Y0036967D01*
X0208222Y0038566D02*
X0213711Y0038566D01*
X0218072Y0036967D02*
X0224993Y0036967D01*
X0224993Y0037637D02*
X0224993Y0035963D01*
X0225633Y0034417D01*
X0226817Y0033233D01*
X0228363Y0032593D01*
X0235237Y0032593D01*
X0236783Y0033233D01*
X0237967Y0034417D01*
X0238607Y0035963D01*
X0238607Y0037637D01*
X0237967Y0039183D01*
X0236783Y0040367D01*
X0235237Y0041007D01*
X0228363Y0041007D01*
X0226817Y0040367D01*
X0225633Y0039183D01*
X0224993Y0037637D01*
X0225378Y0038566D02*
X0219671Y0038566D01*
X0221269Y0040164D02*
X0226615Y0040164D01*
X0222868Y0041763D02*
X0257000Y0041763D01*
X0257000Y0043361D02*
X0236911Y0043361D01*
X0238191Y0044960D02*
X0257000Y0044960D01*
X0257000Y0046558D02*
X0238607Y0046558D01*
X0238392Y0048157D02*
X0257000Y0048157D01*
X0257000Y0049755D02*
X0237394Y0049755D01*
X0243084Y0051354D02*
X0257000Y0051354D01*
X0257000Y0052952D02*
X0243282Y0052952D01*
X0243282Y0054551D02*
X0257000Y0054551D01*
X0257000Y0056149D02*
X0243282Y0056149D01*
X0243282Y0057748D02*
X0257000Y0057748D01*
X0257000Y0059346D02*
X0243282Y0059346D01*
X0243282Y0060945D02*
X0257000Y0060945D01*
X0257000Y0062543D02*
X0243282Y0062543D01*
X0243282Y0064142D02*
X0257000Y0064142D01*
X0257000Y0065740D02*
X0243282Y0065740D01*
X0243282Y0067339D02*
X0257000Y0067339D01*
X0257000Y0068937D02*
X0243282Y0068937D01*
X0243282Y0070536D02*
X0257000Y0070536D01*
X0257000Y0072134D02*
X0243282Y0072134D01*
X0243282Y0073733D02*
X0257000Y0073733D01*
X0257000Y0075332D02*
X0243282Y0075332D01*
X0243282Y0076930D02*
X0257000Y0076930D01*
X0257000Y0078529D02*
X0243282Y0078529D01*
X0243282Y0080127D02*
X0257000Y0080127D01*
X0257000Y0081726D02*
X0243282Y0081726D01*
X0243282Y0083324D02*
X0257000Y0083324D01*
X0257000Y0084923D02*
X0243282Y0084923D01*
X0243282Y0086521D02*
X0257000Y0086521D01*
X0257000Y0088120D02*
X0243282Y0088120D01*
X0243282Y0089718D02*
X0257000Y0089718D01*
X0257000Y0091317D02*
X0243282Y0091317D01*
X0243282Y0092915D02*
X0257000Y0092915D01*
X0257000Y0094514D02*
X0243282Y0094514D01*
X0243282Y0096112D02*
X0257000Y0096112D01*
X0257000Y0097711D02*
X0243282Y0097711D01*
X0243282Y0099309D02*
X0257000Y0099309D01*
X0257000Y0100908D02*
X0243282Y0100908D01*
X0243282Y0102506D02*
X0257000Y0102506D01*
X0257000Y0104105D02*
X0243282Y0104105D01*
X0243683Y0105703D02*
X0257000Y0105703D01*
X0257000Y0107302D02*
X0249029Y0107302D01*
X0250628Y0108900D02*
X0257000Y0108900D01*
X0257000Y0110499D02*
X0251557Y0110499D01*
X0251557Y0112097D02*
X0257000Y0112097D01*
X0257000Y0113696D02*
X0251557Y0113696D01*
X0250033Y0115294D02*
X0257000Y0115294D01*
X0257000Y0116893D02*
X0189687Y0116893D01*
X0208161Y0115294D02*
X0243567Y0115294D01*
X0242043Y0113696D02*
X0209759Y0113696D01*
X0213479Y0112097D02*
X0242043Y0112097D01*
X0242043Y0110499D02*
X0236464Y0110499D01*
X0236783Y0110367D02*
X0235237Y0111007D01*
X0228363Y0111007D01*
X0226817Y0110367D01*
X0225633Y0109183D01*
X0224993Y0107637D01*
X0224993Y0105963D01*
X0225633Y0104417D01*
X0226817Y0103233D01*
X0228363Y0102593D01*
X0235237Y0102593D01*
X0236783Y0103233D01*
X0237967Y0104417D01*
X0238607Y0105963D01*
X0238607Y0107637D01*
X0237967Y0109183D01*
X0236783Y0110367D01*
X0238084Y0108900D02*
X0240920Y0108900D01*
X0239322Y0107302D02*
X0238607Y0107302D01*
X0238499Y0105703D02*
X0239068Y0105703D01*
X0239068Y0104105D02*
X0237654Y0104105D01*
X0228123Y0100908D02*
X0205477Y0100908D01*
X0207841Y0099309D02*
X0225759Y0099309D01*
X0225024Y0097711D02*
X0208576Y0097711D01*
X0208607Y0096112D02*
X0221257Y0096112D01*
X0225946Y0104105D02*
X0207654Y0104105D01*
X0208499Y0105703D02*
X0210433Y0105703D01*
X0211917Y0105703D02*
X0225101Y0105703D01*
X0224993Y0107302D02*
X0214252Y0107302D01*
X0214782Y0108900D02*
X0225516Y0108900D01*
X0227136Y0110499D02*
X0214583Y0110499D01*
X0198123Y0100908D02*
X0193797Y0100908D01*
X0207023Y0080127D02*
X0226577Y0080127D01*
X0225362Y0078529D02*
X0208238Y0078529D01*
X0208607Y0076930D02*
X0222075Y0076930D01*
X0220477Y0075332D02*
X0208345Y0075332D01*
X0223648Y0062543D02*
X0239068Y0062543D01*
X0239068Y0060945D02*
X0235387Y0060945D01*
X0237803Y0059346D02*
X0239068Y0059346D01*
X0239068Y0057748D02*
X0238561Y0057748D01*
X0238607Y0056149D02*
X0239068Y0056149D01*
X0239068Y0054551D02*
X0238022Y0054551D01*
X0228213Y0060945D02*
X0222050Y0060945D01*
X0237692Y0064142D02*
X0239068Y0064142D01*
X0239068Y0065740D02*
X0238515Y0065740D01*
X0238607Y0067339D02*
X0239068Y0067339D01*
X0239068Y0068937D02*
X0238068Y0068937D01*
X0239068Y0070536D02*
X0236374Y0070536D01*
X0236874Y0083324D02*
X0239068Y0083324D01*
X0239068Y0084923D02*
X0238176Y0084923D01*
X0238607Y0086521D02*
X0239068Y0086521D01*
X0239068Y0088120D02*
X0238407Y0088120D01*
X0239068Y0089718D02*
X0237432Y0089718D01*
X0226689Y0043361D02*
X0224466Y0043361D01*
X0215309Y0040164D02*
X0206985Y0040164D01*
X0216474Y0035369D02*
X0225239Y0035369D01*
X0226280Y0033770D02*
X0214875Y0033770D01*
X0213282Y0032172D02*
X0257000Y0032172D01*
X0257000Y0033770D02*
X0237320Y0033770D01*
X0238361Y0035369D02*
X0257000Y0035369D01*
X0257000Y0036967D02*
X0238607Y0036967D01*
X0238222Y0038566D02*
X0257000Y0038566D01*
X0257000Y0040164D02*
X0236985Y0040164D01*
X0235430Y0031092D02*
X0234746Y0031200D01*
X0231800Y0031200D01*
X0231800Y0026800D01*
X0231800Y0026800D01*
X0238800Y0026800D01*
X0238800Y0027146D01*
X0238692Y0027830D01*
X0238478Y0028489D01*
X0238163Y0029106D01*
X0237756Y0029666D01*
X0237266Y0030156D01*
X0236706Y0030563D01*
X0236089Y0030878D01*
X0235430Y0031092D01*
X0236686Y0030573D02*
X0257000Y0030573D01*
X0257000Y0028975D02*
X0238230Y0028975D01*
X0238764Y0027376D02*
X0257000Y0027376D01*
X0257000Y0025778D02*
X0238693Y0025778D01*
X0238692Y0025770D02*
X0238800Y0026454D01*
X0238800Y0026800D01*
X0231800Y0026800D01*
X0231800Y0026800D01*
X0231800Y0031200D01*
X0228854Y0031200D01*
X0228170Y0031092D01*
X0227511Y0030878D01*
X0226894Y0030563D01*
X0226334Y0030156D01*
X0225844Y0029666D01*
X0225437Y0029106D01*
X0225122Y0028489D01*
X0224908Y0027830D01*
X0224800Y0027146D01*
X0224800Y0026800D01*
X0231800Y0026800D01*
X0231800Y0022400D01*
X0234746Y0022400D01*
X0235430Y0022508D01*
X0236089Y0022722D01*
X0236706Y0023037D01*
X0237266Y0023444D01*
X0237756Y0023934D01*
X0238163Y0024494D01*
X0238478Y0025111D01*
X0238692Y0025770D01*
X0237935Y0024179D02*
X0257000Y0024179D01*
X0257000Y0022581D02*
X0235653Y0022581D01*
X0231800Y0022581D02*
X0231800Y0022581D01*
X0231800Y0022400D02*
X0231800Y0026800D01*
X0231800Y0026800D01*
X0231800Y0026800D01*
X0224800Y0026800D01*
X0224800Y0026454D01*
X0224908Y0025770D01*
X0225122Y0025111D01*
X0225437Y0024494D01*
X0225844Y0023934D01*
X0226334Y0023444D01*
X0226894Y0023037D01*
X0227511Y0022722D01*
X0228170Y0022508D01*
X0228854Y0022400D01*
X0231800Y0022400D01*
X0231800Y0024179D02*
X0231800Y0024179D01*
X0231800Y0025778D02*
X0231800Y0025778D01*
X0231800Y0027376D02*
X0231800Y0027376D01*
X0231800Y0028975D02*
X0231800Y0028975D01*
X0231800Y0030573D02*
X0231800Y0030573D01*
X0226914Y0030573D02*
X0213282Y0030573D01*
X0213282Y0028975D02*
X0225370Y0028975D01*
X0224836Y0027376D02*
X0213282Y0027376D01*
X0213282Y0025778D02*
X0224907Y0025778D01*
X0225665Y0024179D02*
X0213282Y0024179D01*
X0213282Y0022581D02*
X0227947Y0022581D01*
X0213282Y0020982D02*
X0257000Y0020982D01*
X0257000Y0019384D02*
X0213282Y0019384D01*
X0213265Y0017785D02*
X0257000Y0017785D01*
X0075378Y0038566D02*
X0069671Y0038566D01*
X0070862Y0036967D02*
X0068072Y0036967D01*
X0067032Y0035927D02*
X0067032Y0035927D01*
X0066474Y0035369D02*
X0070318Y0035369D01*
X0070318Y0033770D02*
X0057320Y0033770D01*
X0046280Y0033770D02*
X0038435Y0033770D01*
X0040033Y0032172D02*
X0069192Y0032172D01*
X0045239Y0035369D02*
X0036836Y0035369D01*
X0035238Y0036967D02*
X0044993Y0036967D01*
X0045378Y0038566D02*
X0034480Y0038566D01*
X0024068Y0046558D02*
X0006600Y0046558D01*
X0006600Y0044960D02*
X0019046Y0044960D01*
X0017920Y0043361D02*
X0006600Y0043361D01*
X0006600Y0041763D02*
X0017618Y0041763D01*
X0017184Y0040164D02*
X0006600Y0040164D01*
X0006600Y0048157D02*
X0019668Y0048157D01*
X0018120Y0049755D02*
X0006600Y0049755D01*
X0006600Y0051354D02*
X0017618Y0051354D01*
X0017668Y0052952D02*
X0006600Y0052952D01*
X0006600Y0054551D02*
X0016069Y0054551D01*
X0014471Y0056149D02*
X0006600Y0056149D01*
X0006600Y0057748D02*
X0012872Y0057748D01*
X0011274Y0059346D02*
X0006600Y0059346D01*
X0006600Y0060945D02*
X0010943Y0060945D01*
X0010943Y0062543D02*
X0006600Y0062543D01*
X0006600Y0064142D02*
X0010943Y0064142D01*
X0010943Y0065740D02*
X0006600Y0065740D01*
X0006600Y0067339D02*
X0010943Y0067339D01*
X0010943Y0068937D02*
X0006600Y0068937D01*
X0006600Y0070536D02*
X0010943Y0070536D01*
X0010943Y0072134D02*
X0006600Y0072134D01*
X0006600Y0073733D02*
X0010943Y0073733D01*
X0010943Y0075332D02*
X0006600Y0075332D01*
X0006600Y0076930D02*
X0010943Y0076930D01*
X0010943Y0078529D02*
X0006600Y0078529D01*
X0006600Y0080127D02*
X0010943Y0080127D01*
X0010943Y0081726D02*
X0006600Y0081726D01*
X0006600Y0083324D02*
X0010943Y0083324D01*
X0010943Y0084923D02*
X0006600Y0084923D01*
X0006600Y0086521D02*
X0010943Y0086521D01*
X0010943Y0088120D02*
X0006600Y0088120D01*
X0006600Y0089718D02*
X0010943Y0089718D01*
X0010943Y0091317D02*
X0006600Y0091317D01*
X0006600Y0092915D02*
X0010943Y0092915D01*
X0010943Y0094514D02*
X0006600Y0094514D01*
X0006600Y0096112D02*
X0010943Y0096112D01*
X0010943Y0097711D02*
X0006600Y0097711D01*
X0006600Y0099309D02*
X0010943Y0099309D01*
X0010943Y0100908D02*
X0006600Y0100908D01*
X0006600Y0102506D02*
X0010943Y0102506D01*
X0010943Y0104105D02*
X0006600Y0104105D01*
X0006600Y0105703D02*
X0010943Y0105703D01*
X0010943Y0107302D02*
X0006600Y0107302D01*
X0006600Y0108900D02*
X0010943Y0108900D01*
X0010943Y0110499D02*
X0006600Y0110499D01*
X0006600Y0112097D02*
X0010943Y0112097D01*
X0010943Y0113696D02*
X0006600Y0113696D01*
X0006600Y0115294D02*
X0010943Y0115294D01*
X0010943Y0116893D02*
X0006600Y0116893D01*
X0006600Y0118491D02*
X0010943Y0118491D01*
X0010943Y0120090D02*
X0006600Y0120090D01*
X0006600Y0121688D02*
X0010943Y0121688D01*
X0010943Y0123287D02*
X0006600Y0123287D01*
X0006600Y0124885D02*
X0010943Y0124885D01*
X0010943Y0126484D02*
X0006600Y0126484D01*
X0006600Y0128082D02*
X0010943Y0128082D01*
X0010943Y0129681D02*
X0006600Y0129681D01*
X0006600Y0131279D02*
X0010943Y0131279D01*
X0010943Y0132878D02*
X0006600Y0132878D01*
X0006600Y0134476D02*
X0010943Y0134476D01*
X0010943Y0136075D02*
X0006600Y0136075D01*
X0006600Y0137673D02*
X0010943Y0137673D01*
X0010943Y0139272D02*
X0006600Y0139272D01*
X0023932Y0048157D02*
X0024068Y0048157D01*
X0018121Y0024179D02*
X0017032Y0024179D01*
X0017032Y0022581D02*
X0017494Y0022581D01*
X0017500Y0020982D02*
X0017032Y0020982D01*
X0017032Y0019384D02*
X0018148Y0019384D01*
X0017032Y0017785D02*
X0020043Y0017785D01*
X0021800Y0017785D02*
X0021800Y0017785D01*
X0023557Y0017785D02*
X0030043Y0017785D01*
X0031800Y0017785D02*
X0031800Y0017785D01*
X0033557Y0017785D02*
X0038460Y0017785D01*
D16*
X0046800Y0011800D03*
X0066800Y0031800D03*
X0116800Y0031800D03*
X0166800Y0031800D03*
X0216800Y0031800D03*
X0251800Y0011800D03*
X0081800Y0136800D03*
D17*
X0086175Y0117425D02*
X0088050Y0115550D01*
X0091800Y0115550D01*
X0093050Y0114300D01*
X0111175Y0114300D01*
X0114925Y0110550D01*
X0114925Y0111175D01*
X0118050Y0114300D01*
X0124300Y0114300D01*
X0125550Y0115550D01*
X0141800Y0115550D01*
X0143050Y0114300D01*
X0172425Y0114300D01*
X0173675Y0115550D01*
X0188050Y0115550D01*
X0189300Y0114300D01*
X0206175Y0114300D01*
X0211175Y0109300D01*
X0201800Y0106800D02*
X0196175Y0112425D01*
X0188050Y0112425D01*
X0186800Y0113675D01*
X0174925Y0113675D01*
X0168050Y0106800D01*
X0151800Y0106800D01*
X0147425Y0106800D01*
X0140550Y0113675D01*
X0126800Y0113675D01*
X0119925Y0106800D01*
X0101800Y0106800D01*
X0098050Y0106800D01*
X0096800Y0108050D01*
X0093050Y0108050D01*
X0089300Y0111800D01*
X0076800Y0111800D01*
X0068675Y0103675D01*
X0068675Y0101800D01*
X0075550Y0101175D02*
X0106175Y0101175D01*
X0110550Y0096800D01*
X0116800Y0096800D01*
X0117425Y0093050D02*
X0123675Y0093050D01*
X0126175Y0095550D01*
X0132425Y0095550D01*
X0131800Y0096800D01*
X0133050Y0095550D01*
X0139925Y0095550D01*
X0143050Y0092425D01*
X0161175Y0092425D01*
X0165550Y0096800D01*
X0181800Y0096800D01*
X0188675Y0096800D01*
X0193050Y0092425D01*
X0220550Y0092425D01*
X0223675Y0095550D01*
X0230550Y0095550D01*
X0231800Y0096800D01*
X0241175Y0106175D02*
X0241175Y0052425D01*
X0225550Y0052425D01*
X0219925Y0046800D01*
X0201800Y0046800D01*
X0197425Y0046800D01*
X0193050Y0042425D01*
X0163050Y0042425D01*
X0159925Y0045550D01*
X0153050Y0045550D01*
X0151800Y0046800D01*
X0157425Y0041800D02*
X0145550Y0041800D01*
X0136175Y0051175D01*
X0125550Y0051175D01*
X0123675Y0055550D02*
X0120550Y0052425D01*
X0091175Y0052425D01*
X0088050Y0055550D01*
X0086800Y0055550D01*
X0085550Y0056800D01*
X0081800Y0056800D01*
X0074300Y0051175D02*
X0069925Y0046800D01*
X0051800Y0046800D01*
X0045550Y0052425D02*
X0043675Y0050550D01*
X0038675Y0050550D01*
X0038675Y0054925D01*
X0031800Y0061800D01*
X0026175Y0067425D02*
X0026175Y0036800D01*
X0032425Y0036800D01*
X0042425Y0026800D01*
X0042425Y0020550D01*
X0060550Y0020550D01*
X0072425Y0032425D01*
X0072425Y0035550D01*
X0076800Y0035550D01*
X0078050Y0036800D01*
X0081800Y0036800D01*
X0086175Y0036800D01*
X0090550Y0032425D01*
X0108050Y0032425D01*
X0112425Y0028050D01*
X0121175Y0028050D01*
X0125550Y0032425D01*
X0159300Y0032425D01*
X0162425Y0035550D01*
X0180550Y0035550D01*
X0181800Y0036800D01*
X0191175Y0028050D02*
X0191175Y0020550D01*
X0186800Y0020550D01*
X0186175Y0019925D01*
X0133050Y0019925D01*
X0136175Y0018050D02*
X0134300Y0016175D01*
X0131800Y0016175D01*
X0128050Y0019925D01*
X0127425Y0019925D01*
X0126800Y0020550D01*
X0103050Y0020550D01*
X0102425Y0019925D01*
X0100550Y0019925D01*
X0084300Y0019925D01*
X0083050Y0016175D02*
X0080550Y0018675D01*
X0040550Y0018675D01*
X0040550Y0023050D01*
X0031800Y0031800D01*
X0031800Y0041800D02*
X0064925Y0041800D01*
X0069300Y0041175D02*
X0064925Y0036800D01*
X0051800Y0036800D01*
X0069300Y0041175D02*
X0140550Y0041175D01*
X0143675Y0038050D01*
X0150550Y0038050D01*
X0151800Y0036800D01*
X0131800Y0046800D02*
X0120550Y0046800D01*
X0118675Y0044925D01*
X0123675Y0055550D02*
X0131175Y0055550D01*
X0131800Y0056175D01*
X0131800Y0056800D01*
X0133050Y0055550D01*
X0139925Y0055550D01*
X0143050Y0052425D01*
X0173050Y0052425D01*
X0177425Y0056800D01*
X0181800Y0056800D01*
X0186175Y0056800D01*
X0190550Y0052425D01*
X0220550Y0052425D01*
X0223675Y0055550D01*
X0230550Y0055550D01*
X0231800Y0056800D01*
X0223675Y0065550D02*
X0220550Y0062425D01*
X0190550Y0062425D01*
X0186175Y0066800D01*
X0181800Y0066800D01*
X0177425Y0066800D01*
X0173050Y0062425D01*
X0143050Y0062425D01*
X0139925Y0065550D01*
X0133050Y0065550D01*
X0131800Y0066800D01*
X0140550Y0071175D02*
X0144925Y0066800D01*
X0151800Y0066800D01*
X0155550Y0066800D01*
X0156800Y0068050D01*
X0174300Y0068050D01*
X0177425Y0071175D01*
X0189300Y0071175D01*
X0189925Y0070550D01*
X0191175Y0070550D01*
X0193675Y0068050D01*
X0200550Y0068050D01*
X0201800Y0066800D01*
X0191175Y0072425D02*
X0188050Y0075550D01*
X0186800Y0075550D01*
X0185550Y0076800D01*
X0181800Y0076800D01*
X0177425Y0076800D01*
X0173050Y0072425D01*
X0143050Y0072425D01*
X0139925Y0075550D01*
X0133050Y0075550D01*
X0131800Y0076800D01*
X0131800Y0076175D01*
X0131175Y0075550D01*
X0123675Y0075550D01*
X0121175Y0073050D01*
X0109925Y0073050D01*
X0109300Y0072425D01*
X0091175Y0072425D01*
X0088050Y0075550D01*
X0086800Y0075550D01*
X0085550Y0076800D01*
X0081800Y0076800D01*
X0065550Y0076800D01*
X0061175Y0072425D01*
X0040550Y0072425D01*
X0035550Y0077425D01*
X0014925Y0077425D01*
X0014925Y0110550D01*
X0020550Y0116175D01*
X0026175Y0116175D01*
X0031800Y0121800D01*
X0039925Y0111800D02*
X0043675Y0115550D01*
X0060550Y0115550D01*
X0066175Y0109925D01*
X0061175Y0109300D02*
X0061175Y0103050D01*
X0059925Y0103050D01*
X0051800Y0106175D02*
X0051800Y0106800D01*
X0051800Y0106175D02*
X0038675Y0093050D01*
X0039925Y0089300D02*
X0034300Y0089300D01*
X0031800Y0091800D01*
X0035550Y0087425D02*
X0027425Y0087425D01*
X0027425Y0096175D01*
X0021800Y0101800D01*
X0031800Y0111800D02*
X0035550Y0108050D01*
X0041175Y0108050D01*
X0046800Y0113675D01*
X0056800Y0113675D01*
X0061175Y0109300D01*
X0059925Y0098050D02*
X0075550Y0113675D01*
X0090550Y0113675D01*
X0091800Y0112425D01*
X0108050Y0112425D01*
X0109925Y0110550D01*
X0111175Y0101800D02*
X0111800Y0101175D01*
X0143050Y0101175D01*
X0147425Y0096800D01*
X0151800Y0096800D01*
X0156175Y0096800D01*
X0160550Y0101175D01*
X0190550Y0101175D01*
X0193675Y0098050D01*
X0200550Y0098050D01*
X0201800Y0096800D01*
X0194925Y0086800D02*
X0190550Y0091175D01*
X0163050Y0091175D01*
X0159925Y0088050D01*
X0153050Y0088050D01*
X0151800Y0086800D01*
X0151800Y0087425D01*
X0151175Y0088050D01*
X0143675Y0088050D01*
X0140550Y0091175D01*
X0118675Y0091175D01*
X0115550Y0088050D01*
X0101175Y0088050D01*
X0101800Y0086800D01*
X0100550Y0088050D01*
X0093675Y0088050D01*
X0090550Y0091175D01*
X0070550Y0091175D01*
X0066175Y0086800D01*
X0051800Y0086800D01*
X0060550Y0081175D02*
X0056175Y0076800D01*
X0051800Y0076800D01*
X0060550Y0081175D02*
X0090550Y0081175D01*
X0093675Y0078050D01*
X0100550Y0078050D01*
X0101800Y0076800D01*
X0101175Y0078050D01*
X0119300Y0078050D01*
X0122425Y0081175D01*
X0140550Y0081175D01*
X0143675Y0078050D01*
X0150550Y0078050D01*
X0151800Y0076800D01*
X0151175Y0078050D01*
X0169300Y0078050D01*
X0172425Y0081175D01*
X0190550Y0081175D01*
X0193675Y0078050D01*
X0200550Y0078050D01*
X0201800Y0076800D01*
X0193050Y0082425D02*
X0223050Y0082425D01*
X0227425Y0086800D01*
X0231800Y0086800D01*
X0231800Y0076800D02*
X0230550Y0075550D01*
X0223675Y0075550D01*
X0220550Y0072425D01*
X0191175Y0072425D01*
X0193050Y0082425D02*
X0189925Y0085550D01*
X0183050Y0085550D01*
X0181800Y0086800D01*
X0181800Y0086175D01*
X0181175Y0085550D01*
X0173675Y0085550D01*
X0170550Y0082425D01*
X0143050Y0082425D01*
X0138675Y0086800D01*
X0131800Y0086800D01*
X0130550Y0085550D01*
X0123675Y0085550D01*
X0120550Y0082425D01*
X0093050Y0082425D01*
X0088675Y0086800D01*
X0081800Y0086800D01*
X0089925Y0095550D02*
X0093050Y0092425D01*
X0116800Y0092425D01*
X0117425Y0093050D01*
X0089925Y0095550D02*
X0083050Y0095550D01*
X0081800Y0096800D01*
X0075550Y0101175D02*
X0064925Y0090550D01*
X0059925Y0098050D02*
X0053050Y0098050D01*
X0051800Y0096800D01*
X0047425Y0096800D01*
X0039925Y0089300D01*
X0035550Y0087425D02*
X0041800Y0081175D01*
X0041800Y0076175D01*
X0031800Y0071800D02*
X0042425Y0061175D01*
X0042425Y0054300D01*
X0045550Y0052425D02*
X0070550Y0052425D01*
X0074300Y0051175D02*
X0089300Y0051175D01*
X0089925Y0050550D01*
X0091175Y0050550D01*
X0093675Y0048050D01*
X0100550Y0048050D01*
X0101800Y0046800D01*
X0076175Y0031800D02*
X0074925Y0031800D01*
X0069925Y0026800D01*
X0069925Y0022425D01*
X0078050Y0016175D02*
X0081800Y0012425D01*
X0098050Y0012425D01*
X0104300Y0018675D01*
X0125550Y0018675D01*
X0129925Y0014300D01*
X0149925Y0014300D01*
X0151800Y0016175D01*
X0199300Y0016175D01*
X0200550Y0014925D01*
X0211175Y0018675D02*
X0188050Y0018675D01*
X0187425Y0018050D01*
X0136175Y0018050D01*
X0093050Y0016175D02*
X0083050Y0016175D01*
X0078050Y0016175D02*
X0046175Y0016175D01*
X0044925Y0014925D01*
X0014925Y0014925D01*
X0014925Y0034925D01*
X0021800Y0041800D01*
X0021800Y0051800D02*
X0013050Y0060550D01*
X0013050Y0138675D01*
X0033675Y0138675D01*
X0044925Y0127425D01*
X0044925Y0117425D01*
X0086175Y0117425D01*
X0026175Y0067425D02*
X0021800Y0071800D01*
X0051800Y0066800D02*
X0053050Y0068050D01*
X0059925Y0068050D01*
X0063050Y0071175D01*
X0089300Y0071175D01*
X0092425Y0068050D01*
X0102425Y0068050D01*
X0101800Y0066800D01*
X0103050Y0068050D01*
X0109925Y0068050D01*
X0113050Y0071175D01*
X0140550Y0071175D01*
X0140550Y0061175D02*
X0060550Y0061175D01*
X0056175Y0056800D01*
X0051800Y0056800D01*
X0140550Y0061175D02*
X0143675Y0058050D01*
X0150550Y0058050D01*
X0151800Y0056800D01*
X0173675Y0058050D02*
X0176800Y0061175D01*
X0186175Y0061175D01*
X0189300Y0058050D01*
X0196800Y0058050D01*
X0198050Y0056800D01*
X0201800Y0056800D01*
X0223675Y0065550D02*
X0230550Y0065550D01*
X0231800Y0066800D01*
X0231800Y0046800D02*
X0230550Y0045550D01*
X0223675Y0045550D01*
X0211175Y0033050D01*
X0211175Y0018675D01*
X0196175Y0033050D02*
X0191175Y0028050D01*
X0196175Y0033050D02*
X0198050Y0033050D01*
X0201800Y0036800D01*
X0201800Y0086800D02*
X0194925Y0086800D01*
X0241175Y0106175D02*
X0246800Y0111800D01*
D18*
X0211175Y0109300D03*
X0173675Y0058050D03*
X0157425Y0041800D03*
X0125550Y0051175D03*
X0118675Y0044925D03*
X0133050Y0019925D03*
X0100550Y0019925D03*
X0093050Y0016175D03*
X0084300Y0019925D03*
X0069925Y0022425D03*
X0076175Y0031800D03*
X0064925Y0041800D03*
X0070550Y0052425D03*
X0042425Y0054300D03*
X0041800Y0076175D03*
X0064925Y0090550D03*
X0068675Y0101800D03*
X0059925Y0103050D03*
X0066175Y0109925D03*
X0039925Y0111800D03*
X0038675Y0093050D03*
X0109925Y0110550D03*
X0114925Y0110550D03*
X0111175Y0101800D03*
X0116800Y0096800D03*
X0200550Y0014925D03*
M02*
